<svg width="21" height="21" viewBox="0 0 20 21" fill="none" xmlns="http://www.w3.org/2000/svg">
<g clip-path="url(#clip0_1605_204)">
<path d="M16.6667 13.4167C15.625 13.4167 14.625 13.25 13.6917 12.9417C13.4 12.85 13.075 12.9167 12.8417 13.1417L11.0083 14.975C8.65 13.775 6.71667 11.85 5.51667 9.48333L7.35 7.64167C7.58333 7.425 7.65 7.1 7.55833 6.80833C7.25 5.875 7.08333 4.875 7.08333 3.83333C7.08333 3.375 6.70833 3 6.25 3H3.33333C2.875 3 2.5 3.375 2.5 3.83333C2.5 11.6583 8.84167 18 16.6667 18C17.125 18 17.5 17.625 17.5 17.1667V14.25C17.5 13.7917 17.125 13.4167 16.6667 13.4167ZM15.8333 10.5H17.5C17.5 6.35833 14.1417 3 10 3V4.66667C13.225 4.66667 15.8333 7.275 15.8333 10.5ZM12.5 10.5H14.1667C14.1667 8.2 12.3 6.33333 10 6.33333V8C11.3833 8 12.5 9.11667 12.5 10.5Z" fill="#120309"/>
</g>
<defs>
<clipPath id="clip0_1605_204">
<rect width="20" height="20" fill="white" transform="translate(0 0.5)"/>
</clipPath>
</defs>
</svg>
