<svg width="21" height="21" viewBox="0 0 21 21" fill="none" xmlns="http://www.w3.org/2000/svg">
<g clip-path="url(#clip0_1605_405)">
<path d="M17.1667 13.3583C16.125 13.3583 15.125 13.1916 14.1917 12.8833C13.9 12.7916 13.575 12.8583 13.3417 13.0833L11.5083 14.9166C9.15 13.7166 7.21667 11.7916 6.01667 9.42492L7.85 7.58326C8.08333 7.36659 8.15 7.04159 8.05833 6.74992C7.75 5.81659 7.58333 4.81659 7.58333 3.77492C7.58333 3.31659 7.20833 2.94159 6.75 2.94159H3.83333C3.375 2.94159 3 3.31659 3 3.77492C3 11.5999 9.34167 17.9416 17.1667 17.9416C17.625 17.9416 18 17.5666 18 17.1083V14.1916C18 13.7333 17.625 13.3583 17.1667 13.3583ZM16.3333 10.4416H18C18 6.29992 14.6417 2.94159 10.5 2.94159V4.60826C13.725 4.60826 16.3333 7.21659 16.3333 10.4416ZM13 10.4416H14.6667C14.6667 8.14159 12.8 6.27492 10.5 6.27492V7.94159C11.8833 7.94159 13 9.05826 13 10.4416Z" fill="#1AA34F"/>
</g>
<defs>
<clipPath id="clip0_1605_405">
<rect width="20" height="20" fill="white" transform="translate(0.5 0.441589)"/>
</clipPath>
</defs>
</svg>
