<svg width="247" height="74" viewBox="0 0 247 74" fill="none" xmlns="http://www.w3.org/2000/svg">
<path d="M83.7722 55.9317C84.1029 56.3012 84.2682 56.8458 84.2682 57.5751V61.076H83.6458V60.1911C83.4999 60.4828 83.286 60.7162 83.004 60.8815C82.722 61.0469 82.3816 61.1247 81.9926 61.1247C81.4578 61.1247 81.0299 60.9788 80.7187 60.6773C80.4075 60.3758 80.2422 59.9771 80.2422 59.4812C80.2422 59.0047 80.3881 58.6157 80.6798 58.3239C80.9715 58.0322 81.4481 57.8863 82.0899 57.8863H83.6264V57.546C83.6264 57.0597 83.5097 56.6902 83.2763 56.4374C83.0429 56.1845 82.7123 56.0581 82.2649 56.0581C81.9635 56.0581 81.6717 56.1165 81.3897 56.2332C81.1077 56.3498 80.8743 56.5152 80.6701 56.7194L80.3783 56.1456C80.6215 55.9025 80.9132 55.7177 81.2536 55.5816C81.5939 55.4454 81.9537 55.3871 82.333 55.3871C82.9651 55.3774 83.4416 55.5621 83.7722 55.9317ZM83.0526 60.23C83.3152 60.0355 83.5097 59.7535 83.6361 59.3742V58.4504H82.1288C81.3119 58.4504 80.9035 58.7907 80.9035 59.4617C80.9035 59.7924 81.0104 60.0549 81.2244 60.2397C81.4383 60.4245 81.7301 60.5217 82.1191 60.5217C82.4692 60.5217 82.7901 60.4245 83.0526 60.23Z" fill="white"/>
<path d="M92.3004 59.53C92.3004 60.026 92.1448 60.4053 91.8336 60.6678C91.5224 60.9304 91.0654 61.0666 90.4527 61.0666H88.2744V55.4165H90.3847C90.9293 55.4165 91.3571 55.5429 91.6683 55.7958C91.9795 56.0486 92.1351 56.4084 92.1351 56.8752C92.1351 57.1864 92.067 57.449 91.9212 57.6629C91.7753 57.8866 91.5808 58.0422 91.328 58.1492C91.9795 58.3242 92.3004 58.791 92.3004 59.53ZM88.9065 57.9352H90.3458C90.7153 57.9352 90.9973 57.8574 91.2015 57.6921C91.396 57.5268 91.4933 57.2836 91.4933 56.9725C91.4933 56.6613 91.396 56.4182 91.2015 56.2626C91.007 56.107 90.725 56.0292 90.3458 56.0292H88.9065V57.9352ZM91.3571 60.2302C91.5614 60.0746 91.6683 59.8218 91.6683 59.4911C91.6683 59.1605 91.5711 58.9077 91.3863 58.7423C91.2015 58.5868 90.9001 58.4992 90.4916 58.4992H88.9065V60.4636H90.4236C90.8417 60.4636 91.1529 60.3858 91.3571 60.2302Z" fill="white"/>
<path d="M99.4674 56.0972H97.6586V61.0666H97.007V56.0972H95.1982V55.4165H99.4674V56.0972Z" fill="white"/>
<path d="M103.192 60.7552C102.823 60.5121 102.531 60.162 102.317 59.7244C102.103 59.2868 101.996 58.7908 101.996 58.2463C101.996 57.7017 102.103 57.2057 102.317 56.7681C102.531 56.3305 102.823 55.9902 103.192 55.747C103.562 55.5039 103.98 55.3872 104.437 55.3872C104.894 55.3872 105.312 55.5137 105.682 55.747C106.051 55.9902 106.343 56.3305 106.547 56.7681C106.761 57.2057 106.858 57.7017 106.858 58.2463C106.858 58.7908 106.751 59.2965 106.547 59.7244C106.343 60.162 106.051 60.5024 105.682 60.7552C105.312 60.9983 104.894 61.1248 104.437 61.1248C103.98 61.1248 103.562 60.9983 103.192 60.7552ZM105.351 60.1717C105.623 59.987 105.828 59.7341 105.983 59.3938C106.139 59.0534 106.207 58.6741 106.207 58.2463C106.207 57.8184 106.129 57.4294 105.983 57.0988C105.828 56.7584 105.623 56.5056 105.351 56.3208C105.079 56.136 104.777 56.0485 104.437 56.0485C104.097 56.0485 103.795 56.136 103.523 56.3208C103.251 56.5056 103.037 56.7584 102.881 57.0988C102.725 57.4391 102.648 57.8184 102.648 58.2463C102.648 58.6741 102.725 59.0631 102.881 59.3938C103.037 59.7341 103.251 59.987 103.523 60.1717C103.795 60.3565 104.097 60.444 104.437 60.444C104.777 60.444 105.089 60.3565 105.351 60.1717Z" fill="white"/>
<path d="M115.892 55.4165V61.0666H115.299V56.5932L113.364 60.3761H113.072L111.127 56.5835V61.0666H110.534V55.4165H111.186L113.218 59.4911L115.29 55.4165H115.892Z" fill="white"/>
<path d="M120.735 60.7552C120.366 60.5121 120.074 60.162 119.86 59.7244C119.646 59.2868 119.539 58.7908 119.539 58.2463C119.539 57.7017 119.646 57.2057 119.86 56.7681C120.074 56.3305 120.366 55.9902 120.735 55.747C121.105 55.5039 121.523 55.3872 121.98 55.3872C122.437 55.3872 122.855 55.5137 123.225 55.747C123.594 55.9902 123.886 56.3305 124.09 56.7681C124.304 57.2057 124.401 57.7017 124.401 58.2463C124.401 58.7908 124.294 59.2965 124.09 59.7244C123.886 60.162 123.594 60.5024 123.225 60.7552C122.855 60.9983 122.437 61.1248 121.98 61.1248C121.523 61.1248 121.105 60.9983 120.735 60.7552ZM122.904 60.1717C123.176 59.987 123.38 59.7341 123.536 59.3938C123.692 59.0534 123.76 58.6741 123.76 58.2463C123.76 57.8184 123.682 57.4294 123.536 57.0988C123.38 56.7584 123.176 56.5056 122.904 56.3208C122.632 56.136 122.33 56.0485 121.99 56.0485C121.649 56.0485 121.348 56.136 121.076 56.3208C120.803 56.5056 120.589 56.7584 120.434 57.0988C120.278 57.4391 120.2 57.8184 120.2 58.2463C120.2 58.6741 120.278 59.0631 120.434 59.3938C120.589 59.7341 120.803 59.987 121.076 60.1717C121.348 60.3565 121.649 60.444 121.99 60.444C122.32 60.444 122.632 60.3565 122.904 60.1717Z" fill="white"/>
<path d="M131.588 55.9026C131.939 56.136 132.211 56.4666 132.405 56.8848C132.6 57.303 132.697 57.7795 132.697 58.3143C132.697 58.8686 132.6 59.3549 132.396 59.7828C132.191 60.2106 131.909 60.5413 131.54 60.7747C131.18 61.0081 130.752 61.1248 130.285 61.1248C129.488 61.1248 128.875 60.7941 128.438 60.1328C128 59.4716 127.786 58.5672 127.786 57.4002C127.786 56.1944 127.981 55.2608 128.37 54.619C128.759 53.9771 129.371 53.5395 130.208 53.3061L132.357 52.7227L132.464 53.4228L130.441 53.9674C129.751 54.1425 129.255 54.4634 128.924 54.9204C128.603 55.3775 128.428 56.0485 128.399 56.9334C128.593 56.4958 128.866 56.1555 129.206 55.9123C129.556 55.6692 129.955 55.5428 130.402 55.5428C130.849 55.5622 131.238 55.6789 131.588 55.9026ZM131.199 60.2301C131.462 60.0453 131.666 59.7925 131.822 59.4618C131.968 59.1312 132.046 58.7617 132.046 58.3435C132.046 57.9253 131.977 57.5655 131.832 57.2446C131.686 56.9334 131.481 56.6806 131.219 56.5056C130.956 56.3305 130.655 56.243 130.315 56.243C129.974 56.243 129.673 56.3305 129.41 56.5056C129.148 56.6806 128.943 56.9237 128.788 57.2446C128.642 57.5558 128.564 57.9253 128.564 58.3435C128.564 58.7617 128.642 59.1312 128.788 59.4618C128.934 59.7925 129.148 60.0453 129.41 60.2301C129.673 60.4149 129.974 60.5024 130.315 60.5024C130.635 60.5024 130.937 60.4051 131.199 60.2301Z" fill="white"/>
<path d="M136.363 55.4165H137.015V59.9093L140.214 55.4165H140.788V61.0666H140.136V56.5737L136.947 61.0666H136.363V55.4165Z" fill="white"/>
<path d="M148.821 55.4164V61.0665H148.169V56.0972H145.874L145.806 57.4975C145.757 58.6742 145.641 59.5786 145.456 60.201C145.271 60.8331 144.95 61.1443 144.483 61.1443C144.357 61.1443 144.201 61.1151 144.017 61.0568L144.065 60.4052C144.172 60.4344 144.25 60.4441 144.289 60.4441C144.542 60.4441 144.726 60.3079 144.853 60.0357C144.979 59.7634 145.067 59.423 145.106 59.0243C145.145 58.6256 145.184 58.0907 145.213 57.4295L145.291 55.4067H148.821V55.4164Z" fill="white"/>
<path d="M156.376 57.8866C156.687 58.1978 156.843 58.6354 156.843 59.2188C156.843 59.8218 156.678 60.2789 156.337 60.6095C155.997 60.9401 155.511 61.086 154.879 61.0763L152.943 61.0666V55.4165H153.595V57.3906L155.005 57.4101C155.598 57.4198 156.055 57.5851 156.376 57.8866ZM155.841 60.1816C156.065 59.9677 156.182 59.6467 156.182 59.2188C156.182 58.8007 156.065 58.4992 155.841 58.295C155.618 58.0908 155.277 57.9936 154.83 57.9838L153.585 57.9644V60.4831L154.83 60.5025C155.277 60.5122 155.618 60.4053 155.841 60.1816Z" fill="white"/>
<path d="M160.344 55.4165H160.995V57.9157H164.01V55.4165H164.661V61.0666H164.01V58.577H160.995V61.0666H160.344V55.4165Z" fill="white"/>
<path d="M172.16 57.8866C172.471 58.1978 172.636 58.6354 172.636 59.2188C172.636 59.8218 172.461 60.2789 172.121 60.6095C171.78 60.9304 171.294 61.086 170.662 61.0763L168.766 61.0666V55.4165H169.417V57.3906L170.779 57.4101C171.391 57.4198 171.848 57.5851 172.16 57.8866ZM171.634 60.1816C171.858 59.9677 171.975 59.6467 171.975 59.2188C171.975 58.8007 171.858 58.4992 171.634 58.295C171.411 58.0908 171.07 57.9936 170.623 57.9838L169.407 57.9644V60.4831L170.623 60.5025C171.08 60.5122 171.411 60.4053 171.634 60.1816ZM173.443 55.4165H174.095V61.0666H173.443V55.4165Z" fill="white"/>
<path d="M182.39 58.4797H178.383C178.422 59.0631 178.607 59.5396 178.957 59.8995C179.307 60.2593 179.744 60.444 180.27 60.444C180.571 60.444 180.843 60.3857 181.086 60.2593C181.339 60.1328 181.553 59.9481 181.738 59.705L182.098 60.2009C181.884 60.5024 181.621 60.7358 181.3 60.8914C180.98 61.047 180.629 61.1248 180.25 61.1248C179.754 61.1248 179.326 60.9983 178.947 60.7552C178.568 60.5121 178.266 60.162 178.062 59.7244C177.848 59.2868 177.741 58.7908 177.741 58.2463C177.741 57.7017 177.838 57.2057 178.043 56.7681C178.247 56.3305 178.529 55.9902 178.879 55.747C179.239 55.5039 179.638 55.3872 180.075 55.3872C180.513 55.3872 180.911 55.5137 181.271 55.747C181.621 55.9902 181.903 56.3305 182.098 56.7584C182.302 57.196 182.399 57.692 182.399 58.2463L182.39 58.4797ZM178.918 56.5542C178.607 56.9043 178.422 57.3516 178.383 57.9156H181.777C181.738 57.3613 181.553 56.9043 181.242 56.5542C180.931 56.2041 180.542 56.029 180.075 56.029C179.618 56.029 179.229 56.2041 178.918 56.5542Z" fill="white"/>
<path d="M192.513 58.5576H191.424V61.0763H190.772V55.4263H191.424V57.9061H192.523L194.205 55.4263H194.905L193.019 58.1686L195.042 61.0763H194.273L192.513 58.5576Z" fill="white"/>
<path d="M198.902 60.7552C198.533 60.5121 198.241 60.162 198.027 59.7244C197.813 59.2868 197.706 58.7908 197.706 58.2463C197.706 57.7017 197.813 57.2057 198.027 56.7681C198.241 56.3305 198.533 55.9902 198.902 55.747C199.272 55.5039 199.69 55.3872 200.147 55.3872C200.604 55.3872 201.022 55.5137 201.392 55.747C201.761 55.9902 202.053 56.3305 202.257 56.7681C202.471 57.2057 202.568 57.7017 202.568 58.2463C202.568 58.7908 202.461 59.2965 202.257 59.7244C202.053 60.162 201.761 60.5024 201.392 60.7552C201.022 60.9983 200.604 61.1248 200.147 61.1248C199.69 61.1248 199.272 60.9983 198.902 60.7552ZM201.061 60.1717C201.333 59.987 201.538 59.7341 201.693 59.3938C201.849 59.0534 201.917 58.6741 201.917 58.2463C201.917 57.8184 201.839 57.4294 201.693 57.0988C201.538 56.7584 201.333 56.5056 201.061 56.3208C200.789 56.136 200.487 56.0485 200.147 56.0485C199.807 56.0485 199.505 56.136 199.233 56.3208C198.961 56.5056 198.747 56.7584 198.591 57.0988C198.435 57.4391 198.358 57.8184 198.358 58.2463C198.358 58.6741 198.435 59.0631 198.591 59.3938C198.747 59.7341 198.961 59.987 199.233 60.1717C199.505 60.3565 199.807 60.444 200.147 60.444C200.487 60.444 200.799 60.3565 201.061 60.1717Z" fill="white"/>
<path d="M210.27 59.53C210.27 60.026 210.115 60.4053 209.803 60.6678C209.492 60.9304 209.035 61.0666 208.422 61.0666H206.244V55.4165H208.354C208.899 55.4165 209.327 55.5429 209.638 55.7958C209.949 56.0486 210.105 56.4084 210.105 56.8752C210.105 57.1864 210.037 57.449 209.891 57.6629C209.745 57.8866 209.551 58.0422 209.298 58.1492C209.949 58.3242 210.27 58.791 210.27 59.53ZM206.876 57.9352H208.315C208.685 57.9352 208.967 57.8574 209.171 57.6921C209.366 57.5268 209.463 57.2836 209.463 56.9725C209.463 56.6613 209.366 56.4182 209.171 56.2626C208.977 56.107 208.695 56.0292 208.315 56.0292H206.876V57.9352ZM209.327 60.2302C209.531 60.0746 209.638 59.8218 209.638 59.4911C209.638 59.1605 209.541 58.9077 209.356 58.7423C209.171 58.5868 208.87 58.4992 208.461 58.4992H206.876V60.4636H208.393C208.811 60.4636 209.113 60.3858 209.327 60.2302Z" fill="white"/>
<path d="M217.749 55.7374C218.109 55.9805 218.401 56.3111 218.605 56.7488C218.809 57.1864 218.916 57.6823 218.916 58.2463C218.916 58.8104 218.809 59.3161 218.605 59.7537C218.401 60.1913 218.119 60.5316 217.749 60.765C217.389 61.0081 216.981 61.1248 216.524 61.1248C216.135 61.1248 215.785 61.0276 215.474 60.8428C215.162 60.6581 214.9 60.376 214.705 60.0065V63.1573H214.054V55.4262H214.676V56.5445C214.871 56.175 215.123 55.8832 215.444 55.6887C215.765 55.4845 216.125 55.3873 216.524 55.3873C216.981 55.3776 217.389 55.4943 217.749 55.7374ZM217.399 60.1718C217.671 59.9871 217.885 59.7342 218.041 59.3939C218.196 59.0535 218.274 58.6742 218.274 58.2463C218.274 57.8184 218.196 57.4392 218.041 57.0988C217.885 56.7682 217.671 56.5056 217.399 56.3209C217.127 56.1361 216.825 56.0388 216.485 56.0388C216.145 56.0388 215.843 56.1361 215.571 56.3209C215.298 56.5056 215.085 56.7682 214.929 57.0988C214.773 57.4295 214.696 57.8087 214.696 58.2463C214.696 58.6742 214.773 59.0632 214.929 59.3939C215.085 59.7342 215.298 59.9871 215.571 60.1718C215.843 60.3566 216.145 60.4441 216.485 60.4441C216.816 60.4441 217.117 60.3566 217.399 60.1718Z" fill="white"/>
<path d="M222.592 55.4165H223.243V59.9093L226.443 55.4165H227.017V61.0666H226.365V56.5737L223.175 61.0666H222.592V55.4165Z" fill="white"/>
<path d="M232.871 58.5576H231.781V61.0763H231.13V55.4263H231.781V57.9061H232.88L234.563 55.4263H235.263L233.376 58.1686L235.399 61.0763H234.631L232.871 58.5576Z" fill="white"/>
<path d="M238.705 55.4165H239.357V59.9093L242.556 55.4165H243.13V61.0666H242.478V56.5737L239.289 61.0666H238.705V55.4165Z" fill="white"/>
<path d="M98.4565 30.0642H91.27L90.599 33.322H97.3382L96.2295 38.5927H89.4904L88.7902 41.8797H96.4824L95.3641 47.1504H80.9424L85.6686 24.7935H99.5943L98.4565 30.0642Z" fill="#009245"/>
<path d="M111.322 47.1602H103.756L101.257 24.8032H108.152L108.92 39.4485C108.92 40.0223 108.881 40.5571 108.793 41.0726H108.949C109.037 40.7905 109.134 40.4794 109.27 40.1487C109.396 39.8084 111.633 34.7029 115.98 24.8129H123.351L111.322 47.1602Z" fill="#009245"/>
<path d="M134.739 47.1602L134.409 43.0467H127.699L125.686 47.1602H118.275L130.684 24.8032H139.057L141.585 47.1602H134.739ZM133.757 31.4354C133.757 30.7255 133.786 30.2199 133.835 29.9087H133.679L133.388 30.6866L132.794 32.0383L130.081 37.7564H134.078L133.786 32.1551L133.757 31.4354Z" fill="#009245"/>
<path d="M168.046 33.8764C168.046 36.5312 167.492 38.8748 166.383 40.9267C165.274 42.9786 163.718 44.5249 161.715 45.5848C159.712 46.6351 157.349 47.17 154.616 47.17H144.182L148.908 24.813H157.816C161.18 24.813 163.728 25.6104 165.459 27.1955C167.19 28.7709 168.046 31.0076 168.046 33.8764ZM160.889 34.3918C160.889 32.9428 160.509 31.8634 159.751 31.1437C158.992 30.4241 157.825 30.0643 156.26 30.0643H154.529L152.049 41.8797H154.315C156.376 41.8797 157.981 41.2087 159.148 39.857C160.315 38.5247 160.889 36.6965 160.889 34.3918Z" fill="white"/>
<path d="M190.364 30.5796C190.364 32.2717 189.781 33.7207 188.614 34.9265C187.447 36.1324 185.891 36.9104 183.946 37.2507V37.3091C185.58 37.912 186.61 39.2443 187.048 41.3059L188.293 47.1504H181.135L180.309 42.1811C180.143 41.2476 179.842 40.5279 179.395 40.032C178.957 39.536 178.306 39.2929 177.45 39.2929H177.391L175.738 47.1504H168.999L173.725 24.7935H182.507C184.977 24.7935 186.912 25.2991 188.293 26.3105C189.674 27.3219 190.364 28.7417 190.364 30.5796ZM183.178 31.8341C183.178 31.0853 182.973 30.5018 182.565 30.0837C182.156 29.6655 181.534 29.4613 180.717 29.4613H179.521L178.364 34.5765H179.861C180.873 34.5765 181.68 34.3139 182.283 33.779C182.876 33.2442 183.178 32.6024 183.178 31.8341Z" fill="white"/>
<path d="M214.219 34.236C214.219 36.6866 213.684 38.9719 212.604 41.0821C211.525 43.1924 210.037 44.797 208.131 45.8958C206.225 46.9947 203.959 47.549 201.324 47.549C199.33 47.549 197.609 47.1406 196.17 46.3237C194.731 45.5069 193.632 44.3593 192.873 42.8715C192.115 41.3836 191.735 39.6818 191.735 37.7758C191.735 35.3057 192.28 33.0107 193.369 30.9102C194.458 28.8096 195.966 27.2051 197.872 26.0965C199.787 24.9878 202.005 24.4238 204.533 24.4238C207.538 24.4238 209.901 25.299 211.632 27.0397C213.363 28.7902 214.219 31.1825 214.219 34.236ZM207.061 34.4499C207.061 33.0885 206.779 32.048 206.215 31.3381C205.651 30.6282 204.834 30.2683 203.774 30.2683C202.802 30.2683 201.946 30.599 201.217 31.2505C200.488 31.9021 199.923 32.8162 199.505 33.9734C199.097 35.1307 198.893 36.3462 198.893 37.6104C198.893 38.9913 199.175 40.0319 199.748 40.7418C200.322 41.442 201.11 41.7921 202.121 41.7921C203.055 41.7921 203.891 41.5003 204.63 40.9168C205.369 40.3333 205.962 39.4484 206.4 38.262C206.847 37.0756 207.061 35.8017 207.061 34.4499Z" fill="white"/>
<path d="M242.265 47.1601H235.623L238.414 34.0027L239.143 30.6477H239.017L237.859 33.4192L231.558 47.1601H225.363L224.566 34.1971C224.507 33.3219 224.469 32.1355 224.469 30.6379H224.332C224.031 32.933 223.681 35.0335 223.292 36.9395L221.123 47.1504H215.152L219.879 24.7934H229.331L230.109 38.1551C230.109 38.8358 230.08 39.536 230.031 40.2556H230.128C230.303 39.7597 230.488 39.2345 230.673 38.6899C230.858 38.1454 231.052 37.6494 231.247 37.2118L236.702 24.7837H247.001L242.265 47.1601Z" fill="white"/>
<path d="M31.959 25.8243C32.1729 25.6201 32.3674 25.4936 32.5036 25.4061C33.3302 24.9102 34.2443 24.8713 34.818 24.8518C38.7954 24.7935 42.7825 24.7351 46.7599 24.6962C51.8556 24.6379 56.9513 24.599 62.0373 24.5795C61.6775 23.8988 61.3177 23.2181 60.9579 22.5373C60.6856 22.0122 60.4036 21.4968 60.1313 20.9717C49.9204 21.0689 39.7095 21.1564 29.5084 21.2537C29.4987 21.2829 29.4889 21.312 29.4792 21.3315C29.3333 21.3509 29.1777 21.3801 29.0222 21.4385C28.0886 21.7594 27.6413 22.7221 27.4857 23.0528C26.9314 24.2197 20.9799 39.361 12.957 60.1328C14.0365 60.3954 15.1159 60.6677 16.1953 60.9303C19.4336 60.9692 22.6817 61.0178 25.92 61.0567C30.3058 61.047 34.6916 61.0275 39.0677 61.0178C40.3514 60.6482 41.8392 60.1231 43.4341 59.3354C44.6594 58.7325 45.7194 58.1004 46.6238 57.4877C40.7792 57.4586 34.9347 57.4197 29.0902 57.3905V57.4002C26.5813 57.4197 24.0626 57.4391 21.5536 57.4488L26.2117 43.2509C29.382 43.2703 32.5522 43.28 35.7322 43.2995C36.0822 42.1131 36.4421 40.9267 36.7921 39.7403C33.6608 39.7111 30.5197 39.6916 27.3884 39.6625C28.3025 36.8229 29.2361 33.9541 30.1891 31.0756C30.7726 29.3349 31.3658 27.5747 31.959 25.8243Z" fill="#009245"/>
<path d="M47.5771 18.0927C48.8803 18.1413 50.1931 18.1997 51.4962 18.2483C51.7879 17.3342 52.0797 16.4103 52.3811 15.4962L49.0067 14.0181C48.5302 15.3795 48.0537 16.741 47.5771 18.0927Z" fill="white"/>
<path d="M53.3921 12.686L49.1035 14.1156C49.9593 14.7574 50.8734 15.5062 51.7972 16.3911C52.4682 17.0232 53.0712 17.6456 53.606 18.2485C55.162 18.2485 56.7276 18.2485 58.2836 18.2485C58.021 17.7915 57.7195 17.3247 57.3889 16.8579C56.1053 15.0297 54.6757 13.6779 53.3921 12.686Z" fill="white"/>
<path d="M64.6534 31.2987C64.4394 30.2874 64.1477 29.2858 64.1477 29.2858C63.9532 28.6245 63.7393 27.9826 63.5059 27.3408H59.3048C59.9369 28.819 60.4426 30.3749 60.7927 31.9989C63.7295 45.6912 54.9385 59.1599 41.1489 62.0675C41.1489 62.0675 41.1489 62.0675 41.1392 62.0675C40.4585 62.2037 39.3109 62.3885 36.3255 62.4274C35.635 62.4371 35.2947 62.4273 34.896 62.4079C34.2833 62.369 33.7679 62.3009 33.3984 62.2426C32.6885 64.5182 32.105 66.288 32.0272 66.2686C31.998 66.2588 31.9883 66.0255 32.0272 66.0158C32.0466 66.0158 32.0661 66.0546 32.0758 66.0741C32.105 66.1324 32.0855 66.2102 32.0272 66.2783C31.998 66.2686 31.9883 66.2589 31.9883 66.2491C31.998 66.22 32.5231 66.3075 33.5637 66.5312C34.8862 66.5701 36.1991 66.6187 37.5216 66.6576C38.9025 66.609 40.3709 66.4436 41.9074 66.1324C50.7277 64.3139 56.4847 58.4013 59.2368 55.0561C59.2368 55.0561 67.4346 44.2131 64.6534 31.2987Z" fill="white"/>
<path d="M48.8706 27.3506C48.044 27.37 47.2175 27.3798 46.3909 27.3992C45.8657 27.4089 45.3503 27.4187 44.8252 27.4284C40.5755 40.2746 36.3258 53.1209 32.0762 65.9672C34.342 65.5393 36.6078 65.1211 38.8737 64.6932C42.2092 52.236 45.5351 39.7884 48.8706 27.3506Z" fill="white"/>
<path d="M40.711 71.5299C21.5437 71.7925 5.78009 56.4665 5.51752 37.2992C5.25495 18.1319 20.581 2.36825 39.7483 2.10568C45.6998 2.02789 51.3303 3.44769 56.2607 6.015C50.4259 2.25156 43.4534 0.102408 35.9946 0.209379C15.8354 0.491394 -0.278369 17.0525 0.00364598 37.2117C0.285661 57.3709 16.8467 73.4846 37.0059 73.2026C43.3464 73.1151 49.2882 71.4133 54.4422 68.4959C50.2412 70.3824 45.6025 71.4619 40.711 71.5299Z" fill="#009245"/>
<path d="M44.1636 5.02325C43.2981 4.92601 42.3646 4.82877 41.5866 4.86767C58.0796 7.92121 69.8561 22.4887 68.4655 39.3415C67.143 55.3775 54.5106 67.5041 38.8053 69.1962C38.7664 69.1379 38.9123 69.2157 38.9706 69.2254C56.4069 69.8186 71.6941 57.3808 73.1625 39.4777C74.6309 21.5746 61.9792 7.01681 44.1636 5.02325Z" fill="white"/>
</svg>
