<svg width="32" height="48" viewBox="0 0 32 48" fill="none" xmlns="http://www.w3.org/2000/svg">
<path d="M0.25 0.633301V47.1333H1.075H1.375H31.75V36.2583H11.125V0.633301H0.25ZM9.625 2.1333V36.7083L1.75 44.5833V39.6333H4.75V38.1333H1.75V35.8833H4.75V34.3833H1.75V32.1333H4.75V30.6333H1.75V28.3833H4.75V26.8833H1.75V24.6333H4.75V23.1333H1.75V20.8833H4.75V19.3833H1.75V17.1333H4.75V15.6333H1.75V13.3833H4.75V11.8833H1.75V9.6333H4.75V8.1333H1.75V5.8833H4.75V4.3833H1.75V2.1333H9.625ZM30.25 45.6333H2.8L10.675 37.7583H30.25V45.6333Z" fill="white"/>
</svg>
