<svg width="116" height="62" viewBox="0 0 116 62" fill="none" xmlns="http://www.w3.org/2000/svg">
<path fill-rule="evenodd" clip-rule="evenodd" d="M61.0146 30.6364C61.0146 45.1199 51.0218 57.6208 36.8682 60.4973C20.1253 63.9361 4.69319 53.0227 1.35248 37.2502C-0.843234 26.8335 1.71248 17.5414 8.88819 9.73734C13.6053 4.57836 19.5025 1.53603 26.3503 0.511591C31.7568 -0.315316 37.0318 0.345777 42.1103 2.36294C42.4703 2.52875 42.831 2.69385 42.9946 3.09108C43.1589 3.52075 43.0932 3.95043 42.7653 4.28061C42.4046 4.61224 42.0118 4.71101 41.5532 4.51275C40.046 3.8841 38.506 3.35494 36.9003 3.02475C26.6132 1.00759 17.7668 3.68585 10.4603 11.2578C6.16819 15.7571 3.67891 21.1792 3.02319 27.3302C2.10605 35.928 4.53034 43.5007 10.3296 49.8831C14.6868 54.6448 20.0932 57.5876 26.4489 58.5472C35.426 59.8694 43.3553 57.4225 50.0389 51.1721C54.8218 46.6756 57.6396 41.1201 58.5575 34.6051C59.311 29.3474 58.5903 24.2886 56.526 19.3935C56.4603 19.2615 56.3946 19.1628 56.3618 19.0301C56.1332 18.4022 56.3618 17.8067 56.9189 17.5753C57.476 17.3107 58.0989 17.5421 58.361 18.1376C58.9832 19.5261 59.5075 20.9485 59.9003 22.4365C60.6539 25.0823 61.0146 27.8594 61.0146 30.6371" fill="#212429"/>
<path fill-rule="evenodd" clip-rule="evenodd" d="M51.0215 16.946C47.0901 16.946 44.043 13.8381 44.043 9.83695C44.043 5.93455 47.188 2.79346 51.0215 2.79346C54.9201 2.79346 58.0658 5.96771 58.033 9.90255C58.0658 13.8049 54.953 16.946 51.0215 16.946Z" fill="#212429"/>
<path d="M24.4502 30.603V23.956C24.4502 23.5927 24.5488 23.4932 24.9088 23.4932C26.9402 23.5263 28.9716 23.4607 30.9702 23.5263C32.7066 23.5595 34.1488 24.155 34.9345 25.8412C35.3609 26.7013 35.4259 27.627 35.0988 28.5527C34.9673 28.9167 35.033 29.0162 35.393 29.115C37.0316 29.5447 38.1452 30.5374 38.5388 32.2568C39.128 35.0014 37.1623 37.6796 34.3773 37.746C31.1666 37.8454 27.9888 37.7791 24.7773 37.7791C24.4173 37.7791 24.4502 37.5809 24.4831 37.3494C24.4502 35.1001 24.4502 32.8516 24.4502 30.603ZM31.1666 34.3396H33.8209C34.443 34.3396 34.8366 33.943 34.8695 33.3807C34.9016 32.7528 34.5745 32.29 33.9845 32.1905C33.788 32.1573 33.6245 32.1573 33.4273 32.1573H29.9545C29.3973 32.1573 28.6116 31.8927 28.3166 32.2568C28.0216 32.6201 28.2509 33.3814 28.2181 33.943C28.1852 34.274 28.3166 34.3396 28.6109 34.3396H31.1666ZM29.4959 28.8504H30.6102C31.1673 28.8172 31.5931 28.3876 31.5602 27.8584C31.5273 27.2961 31.1673 26.9659 30.5773 26.9659C29.9545 26.9659 29.3652 26.999 28.7423 26.9659C28.3166 26.9327 28.1523 27.0315 28.2181 27.495C28.2509 27.9247 28.0873 28.5202 28.3166 28.7841C28.5452 29.0487 29.1352 28.7841 29.4959 28.8504Z" fill="#212429"/>
<path fill-rule="evenodd" clip-rule="evenodd" d="M49.2521 37.7796H43.945C41.5857 37.7796 39.8164 35.9938 39.8164 33.6126V24.0228C39.8164 23.6594 39.8814 23.5268 40.275 23.5268C41.1921 23.5598 42.11 23.5598 43.0271 23.5268C43.4528 23.5268 43.5843 23.5931 43.5843 24.0559C43.5514 27.1646 43.5843 30.2732 43.5843 33.3812C43.5843 34.1418 43.715 34.3076 44.4686 34.3076H49.0557C49.4814 34.3076 49.6128 34.2081 49.6128 33.7784C49.58 30.5378 49.6128 27.3297 49.58 24.0891C49.58 23.5931 49.7107 23.4936 50.1693 23.5268C51.0871 23.5599 51.9714 23.5599 52.8886 23.5268C53.2814 23.5268 53.4128 23.5931 53.4128 24.0228C53.38 27.2634 53.4128 30.5039 53.38 33.7784C53.38 34.2412 53.5114 34.3732 53.9371 34.3407C54.2978 34.3076 54.6586 34.3407 55.0185 34.3407C55.2807 34.3076 55.3464 34.4395 55.3464 34.7041C55.3464 35.6298 55.3136 36.523 55.3464 37.4487C55.3464 37.7796 55.2478 37.8452 54.9536 37.8452C53.02 37.7464 51.12 37.7796 49.2521 37.7796Z" fill="#212429"/>
<path d="M6.33203 37.7792C7.24917 35.5962 8.10132 33.5135 8.9856 31.43C9.70703 29.7105 10.427 27.958 11.1477 26.2385C11.8363 24.5516 13.212 23.5596 14.8835 23.5596C16.587 23.5596 17.9627 24.5184 18.6506 26.2054C20.2235 30.0407 21.7963 33.91 23.4013 37.8124H20.617C19.5027 37.8124 19.5027 37.8124 19.0442 36.754C18.6185 35.7289 18.6185 35.7289 17.537 35.7289H11.4427C11.1477 35.7289 10.9842 35.8284 10.8856 36.1254C10.6892 36.6877 10.5913 37.4159 10.1649 37.746C9.73917 38.0769 8.98632 37.8455 8.36346 37.8455C7.77346 37.7792 7.08489 37.7792 6.33203 37.7792ZM12.4585 32.3888H16.8813C17.0785 32.3888 17.2742 32.422 17.1435 32.0911C16.5213 30.4711 15.9313 28.8836 15.3092 27.263C15.2435 27.0647 15.1127 26.9328 14.9163 26.9328C14.7192 26.9328 14.6213 27.0647 14.5556 27.2305C13.8253 28.9369 13.1262 30.6566 12.4585 32.3888Z" fill="#212429"/>
<path fill-rule="evenodd" clip-rule="evenodd" d="M90.7965 24.9489C90.338 25.4781 89.8787 26.0065 89.4537 26.5689C89.1908 26.9654 88.8308 26.8335 88.503 26.8335C88.3387 26.8335 88.3723 26.6676 88.3723 26.5689V23.8575C88.3723 23.4278 88.6665 23.5597 88.8637 23.5597C89.0601 23.5597 89.3223 23.4934 89.2894 23.8575C89.2576 24.3887 89.2905 24.9218 89.3873 25.4449C89.8137 24.9158 90.3051 24.3866 90.698 23.8243C90.993 23.4278 91.3537 23.5265 91.7137 23.5265C91.878 23.5265 91.8451 23.6592 91.8451 23.758V26.602C91.8451 26.9985 91.5501 26.8335 91.3858 26.8666C91.1894 26.8998 90.9272 26.9329 90.9601 26.5689C90.993 26.0397 90.9601 25.5105 90.9601 25.0145C90.8622 24.9489 90.8294 24.9489 90.7958 24.9489H90.7965ZM73.0058 34.3729C73.3665 34.3729 73.7273 34.4061 74.0873 34.3729C74.4144 34.3398 74.5458 34.4393 74.5458 34.8033C74.5458 35.1667 74.4144 35.233 74.0873 35.1998C73.5958 35.1667 73.1372 35.1998 72.6451 35.1998C72.4815 35.1998 72.3508 35.1998 72.3508 35.4313C72.3508 35.6627 72.5144 35.5971 72.6451 35.6295C73.0715 35.6295 73.4973 35.6627 73.9237 35.6295C74.3165 35.5964 74.2837 35.8285 74.3165 36.0924C74.3494 36.4564 74.1851 36.4889 73.9237 36.4564C73.5857 36.4233 73.2453 36.4233 72.9073 36.4564C72.7437 36.4896 72.4158 36.2906 72.383 36.6547C72.383 37.0512 72.7437 36.8861 72.9401 36.8861C73.3665 36.9193 73.8251 36.9193 74.2508 36.8861C74.6115 36.8529 74.6115 37.0851 74.6115 37.3497C74.6115 37.6467 74.5787 37.7793 74.2187 37.7793C73.5958 37.7462 73.0058 37.7793 72.383 37.7793C71.7608 37.7793 71.4658 37.4816 71.4658 36.8529V34.737C71.4658 34.4393 71.5644 34.3729 71.8265 34.4061C72.2194 34.3729 72.6123 34.3729 73.0058 34.3729ZM93.3522 28.9501H94.433C94.728 28.9501 94.8915 28.9833 94.8915 29.3466C94.8915 29.7431 94.7608 29.8095 94.433 29.777C94.0076 29.7439 93.5804 29.7439 93.1551 29.777C92.9915 29.777 92.7294 29.6444 92.7623 29.9753C92.7623 30.3055 93.0244 30.1411 93.188 30.1735C93.5587 30.2066 93.9315 30.2066 94.3022 30.1735C94.6623 30.1404 94.6623 30.3393 94.6951 30.6032C94.6951 30.9009 94.6294 31.0336 94.3022 30.9997C93.8758 30.9673 93.4501 30.9997 93.0237 30.9997C92.8608 30.9997 92.7623 30.9997 92.7623 31.1987C92.7623 31.3969 92.8608 31.4301 93.0244 31.4301C93.5815 31.4301 94.1058 31.4633 94.6622 31.4301C94.9901 31.4301 95.023 31.562 94.9901 31.8266C94.9572 32.058 95.0558 32.3226 94.6622 32.2902C94.0072 32.257 93.3844 32.2902 92.7294 32.2902C92.1723 32.2902 91.8773 31.9585 91.8773 31.4301V29.2803C91.8773 29.0164 91.9758 28.9501 92.2058 28.9501H93.3522ZM110.291 30.2067C109.734 30.8678 109.242 31.4301 108.817 32.0256C108.554 32.4221 108.194 32.2563 107.834 32.2902C107.669 32.2902 107.702 32.1575 107.702 32.058V29.2147C107.702 28.8182 107.964 28.9501 108.161 28.9501C108.358 28.9501 108.62 28.8838 108.62 29.2478C108.587 29.777 108.62 30.3055 108.62 30.9997C109.177 30.3386 109.635 29.777 110.094 29.2147C110.225 29.082 110.323 28.9501 110.553 28.9169C111.175 28.8838 111.175 28.8838 111.175 29.4793C111.175 30.2723 111.142 31.0992 111.175 31.8929C111.208 32.3226 110.947 32.2238 110.684 32.257C110.389 32.2902 110.258 32.2238 110.291 31.8605C110.324 31.3969 110.291 30.9017 110.291 30.2067Z" fill="#212429"/>
<path d="M91.4508 36.0596V34.7375C91.4508 34.4729 91.5494 34.3734 91.8115 34.4065C92.2372 34.4397 92.6958 34.4065 93.1222 34.4729C93.7115 34.5392 93.9737 34.8694 93.9408 35.4649C93.9408 35.6631 93.9737 35.7295 94.1372 35.7958C94.6287 35.994 94.793 36.4237 94.7272 36.9204C94.6615 37.3825 94.2358 37.7466 93.7115 37.7798C93.0565 37.8129 92.4008 37.7798 91.713 37.7798C91.4844 37.7798 91.418 37.6803 91.418 37.482C91.4837 36.986 91.4508 36.5232 91.4508 36.0604V36.0596ZM93.0565 36.9529C93.3187 36.8209 93.8422 37.1511 93.8422 36.6551C93.8422 36.2586 93.3515 36.4244 93.0894 36.4569C92.8601 36.49 92.368 36.1591 92.4008 36.6883C92.3687 37.1511 92.8272 36.7878 93.0565 36.9529ZM92.6958 35.63C92.8601 35.5968 93.0887 35.6963 93.0887 35.4317C93.0887 35.2003 92.8601 35.2003 92.6958 35.2003C92.5315 35.2003 92.3358 35.1671 92.3687 35.4317C92.3687 35.6963 92.5651 35.5975 92.6958 35.63Z" fill="#212429"/>
<path fill-rule="evenodd" clip-rule="evenodd" d="M69.3357 37.7463H68.0585C67.5343 37.7131 67.2721 37.4154 67.2393 36.8862C67.2393 36.192 67.2721 35.4977 67.2393 34.8359C67.2393 34.5057 67.305 34.373 67.665 34.373C67.9928 34.373 68.1564 34.4394 68.1243 34.8359C68.0914 35.4314 68.1243 35.9937 68.1243 36.5892C68.1243 36.853 68.1893 36.9525 68.4514 36.9525C69.5657 36.9857 69.5657 37.0189 69.5657 35.8942C69.5657 35.564 69.5985 35.2331 69.5657 34.9022C69.5 34.4394 69.73 34.373 70.1228 34.373C70.45 34.373 70.5157 34.4725 70.5157 34.8034C70.4828 35.3982 70.5157 35.993 70.5157 36.5892C70.5157 36.7211 70.45 36.9194 70.7121 36.9194C71.0071 36.9194 70.9414 37.0852 70.9414 37.2503C70.9743 37.6136 70.9085 37.8126 70.4828 37.7463C70.1228 37.7131 69.7293 37.7463 69.3364 37.7463" fill="#212429"/>
<path d="M67.2393 30.6364V29.2479C67.2393 29.0821 67.2393 28.9502 67.4685 28.9502C67.96 28.9502 68.4514 28.9834 68.9428 28.9834C69.205 28.9834 69.5328 29.1153 69.5657 29.3467C69.6964 29.9422 70.09 30.3387 70.4171 30.8015C70.8435 31.397 70.3193 32.2239 69.5657 32.2903C68.8771 32.3559 68.1893 32.2903 67.4685 32.3227C67.2393 32.3227 67.2393 32.2239 67.2393 32.0257V30.6364ZM68.8121 31.4634H69.3035C69.4678 31.4634 69.6307 31.397 69.6307 31.1988C69.6307 31.0005 69.4671 30.9674 69.3035 30.9674H68.3535C68.1564 30.9674 68.1243 31.0661 68.1243 31.2319C68.1243 31.3978 68.1893 31.4965 68.3528 31.4626H68.8121V31.4634ZM68.4514 30.1736C68.6157 30.1736 68.8443 30.2068 68.8443 29.9754C68.8771 29.7439 68.6478 29.7439 68.4843 29.7439C68.32 29.7439 68.1243 29.6776 68.1243 29.9422C68.1243 30.2068 68.3207 30.1736 68.4514 30.1736Z" fill="#212429"/>
<path fill-rule="evenodd" clip-rule="evenodd" d="M99.0526 26.834H97.774C97.2833 26.834 97.0211 26.5362 96.9883 26.0734V23.7917C96.9883 23.4283 97.1847 23.4939 97.3811 23.5271C97.5783 23.5602 97.9054 23.362 97.9054 23.7917V25.6437C97.9054 25.9415 98.004 26.0071 98.2983 26.0071C99.3797 26.0071 99.3797 26.0402 99.3797 24.9163C99.3797 24.6186 99.4126 24.3208 99.3797 24.0562C99.3147 23.5934 99.4783 23.4615 99.9369 23.4939C100.232 23.5271 100.363 23.5934 100.33 23.8904C100.298 24.4203 100.33 24.9495 100.33 25.4786C100.33 25.7093 100.199 25.9746 100.658 26.0071C100.887 26.0402 100.723 26.4375 100.756 26.6357C100.756 26.8671 100.56 26.7677 100.461 26.7677C99.9368 26.834 99.4783 26.834 99.0526 26.834ZM103.77 24.7844C103.213 25.4786 102.755 26.0071 102.296 26.5694C102.001 26.9335 101.64 26.8008 101.313 26.8008C101.149 26.8008 101.215 26.6026 101.215 26.5038V23.8248C101.215 23.4283 101.444 23.4939 101.673 23.4939C101.903 23.4939 102.165 23.4283 102.132 23.8255C102.1 24.354 102.132 24.8831 102.132 25.5442C102.656 24.9163 103.148 24.3871 103.541 23.8248C103.836 23.4283 104.163 23.4939 104.524 23.4939C104.72 23.4939 104.688 23.6266 104.688 23.7585V26.5362C104.688 26.9003 104.458 26.834 104.295 26.8008C104.098 26.7677 103.77 26.9666 103.77 26.5362V24.7844Z" fill="#212429"/>
<path d="M105.441 26.8006C105.507 26.6355 105.572 26.536 105.637 26.4372C105.867 26.1395 105.9 25.9412 105.572 25.5771C104.917 24.8497 105.441 23.6263 106.424 23.5268C107.08 23.4612 107.735 23.5268 108.422 23.4937C108.652 23.4937 108.652 23.5931 108.652 23.7914V26.536C108.652 26.8676 108.488 26.9 108.292 26.8337C108.095 26.8006 107.735 27.032 107.735 26.536C107.735 26.404 107.833 26.1395 107.57 26.1395C107.276 26.1395 106.915 25.9412 106.686 26.3053C106.293 26.8676 106.293 26.8676 105.441 26.8006ZM107.08 24.3537H106.719C106.391 24.3537 106.195 24.5195 106.195 24.8497C106.195 25.1475 106.391 25.3126 106.686 25.3126H107.44C107.669 25.3126 107.702 25.2462 107.735 25.0148C107.767 24.3206 107.8 24.3206 107.08 24.3537Z" fill="#212429"/>
<path fill-rule="evenodd" clip-rule="evenodd" d="M75.3321 36.0594C75.3321 35.6297 75.3649 35.1669 75.3321 34.7372C75.2992 34.3407 75.5285 34.3731 75.7578 34.3731C75.9871 34.3731 76.2163 34.3075 76.2163 34.704C76.2492 35.5965 76.2492 35.5965 77.1013 35.5965C77.7563 35.5965 77.7563 35.5965 77.7892 34.9354C77.7892 34.4063 78.0178 34.2412 78.5428 34.3731C78.7392 34.4394 78.7071 34.5721 78.7071 34.704V37.4155C78.7071 37.8783 78.4113 37.7132 78.1821 37.7464C77.9199 37.7795 77.7892 37.7464 77.7892 37.4155C77.7892 36.4235 77.7563 36.4566 76.7735 36.4235C76.3149 36.3903 76.1506 36.5561 76.2163 37.0189C76.2492 37.1509 76.2163 37.2835 76.2163 37.4155C76.2492 37.812 75.9878 37.7464 75.7578 37.7464C75.5285 37.7464 75.2663 37.7795 75.3321 37.4155V36.0594ZM78.8706 30.6034C78.8706 31.0662 78.8378 31.5298 78.8706 31.9926C78.9028 32.4223 78.6085 32.2904 78.3785 32.2904C78.1821 32.2904 77.9528 32.356 77.9528 31.9926C77.9856 31.3971 77.9528 30.8016 77.9528 30.1737C77.9528 29.9754 77.9856 29.7109 77.6906 29.7772C77.3956 29.8428 76.9699 29.5126 76.8721 30.0742C76.7735 30.5378 76.7078 30.9674 76.6099 31.4303C76.5113 31.9594 76.1835 32.2233 75.6599 32.2572C75.1349 32.2904 74.9713 32.0914 75.1028 31.5954C75.1349 31.4966 75.1678 31.4303 75.2663 31.4634C75.7249 31.5622 75.7578 31.1989 75.7906 30.9011C75.8563 30.4714 75.9549 30.0742 76.0192 29.6445C76.0856 29.2149 76.3478 28.9503 76.7735 28.9503C77.3635 28.9171 77.9528 28.9503 78.5756 28.9503C78.8042 28.9503 78.8706 29.0822 78.8378 29.2805C78.8706 29.7109 78.8706 30.1405 78.8706 30.6034Z" fill="#212429"/>
<path d="M83.424 25.1803C83.424 26.1723 82.6054 26.9322 81.5568 26.9322C80.5411 26.9322 79.7218 26.1392 79.7218 25.1803C79.7218 24.1883 80.5082 23.4277 81.5897 23.4277C82.6375 23.4277 83.424 24.1883 83.424 25.1796V25.1803ZM82.5068 25.1472C82.5068 24.5848 82.114 24.1883 81.5568 24.1883C80.9997 24.1883 80.639 24.5848 80.639 25.1472C80.639 25.7426 80.9997 26.1392 81.5568 26.1392C82.1461 26.1392 82.5068 25.7426 82.5068 25.1472ZM81.4254 28.8837C82.474 28.8837 83.2932 29.6768 83.2604 30.6695C83.2275 31.6283 82.4082 32.3889 81.3925 32.3889C80.3447 32.3889 79.5254 31.5959 79.5254 30.6032C79.5254 29.6112 80.3447 28.8513 81.4254 28.8837ZM80.4425 30.6032C80.4425 31.1655 80.8354 31.5952 81.3925 31.562C81.9497 31.562 82.3425 31.1655 82.3425 30.57C82.3425 30.0408 81.9168 29.6112 81.4254 29.6112C80.8682 29.6112 80.4425 30.0408 80.4425 30.6032ZM95.6447 30.5044C95.6775 30.0408 95.4161 29.3134 95.7433 29.0164C96.0383 28.7518 96.759 28.9501 97.2833 28.9501C97.5118 28.9501 97.7418 28.9501 97.9383 28.9832C98.6261 29.1152 98.9868 29.6112 98.954 30.3717C98.9211 31.0004 98.4954 31.4964 97.8397 31.562C97.6008 31.595 97.3586 31.595 97.1197 31.562C96.759 31.5295 96.464 31.5295 96.5297 32.0912C96.5625 32.4877 96.169 32.257 95.9725 32.2901C95.8083 32.3226 95.6447 32.3226 95.6447 32.058C95.6775 31.8273 95.6447 31.562 95.6447 31.3306V30.5044ZM97.1847 30.7351H97.5454C97.8404 30.7351 98.0368 30.6032 98.0697 30.3054C98.1025 29.9752 97.8733 29.8094 97.5783 29.777C97.3161 29.7438 97.054 29.777 96.8247 29.777C96.6275 29.777 96.5625 29.8757 96.5625 30.0408C96.464 30.7358 96.464 30.7358 97.1847 30.7358V30.7351Z" fill="#212429"/>
<path fill-rule="evenodd" clip-rule="evenodd" d="M83.9162 30.6366C83.9162 30.1737 83.949 29.7109 83.9162 29.2481C83.8833 28.8515 84.1783 28.9503 84.3755 28.9503C84.5719 28.9503 84.834 28.8177 84.834 29.2149C84.834 29.5126 84.7026 29.9092 84.899 30.0742C85.0962 30.2069 85.489 30.1074 85.784 30.1406C86.2755 30.2069 86.439 30.0411 86.374 29.5451C86.3412 29.2481 86.2426 28.884 86.7997 28.9172C87.1926 28.9503 87.2912 29.0166 87.2583 29.4132C87.2256 30.2505 87.2256 31.0889 87.2583 31.9263C87.2583 32.2904 87.094 32.3228 86.8326 32.2904C86.6033 32.2572 86.3412 32.3892 86.3412 31.9588C86.3412 30.9675 86.3083 30.9999 85.3255 30.9675C84.8669 30.9343 84.7026 31.0994 84.8012 31.5298C84.834 31.6617 84.8012 31.7605 84.8012 31.8932C84.8669 32.2897 84.6369 32.3228 84.3426 32.3228C84.0476 32.3228 83.8512 32.3228 83.8833 31.9263C83.949 31.4966 83.9162 31.0338 83.9162 30.6366Z" fill="#212429"/>
<path d="M90.7961 36.0595C90.7961 37.0522 90.0096 37.8128 88.9282 37.8128C87.8796 37.8128 87.0939 37.0846 87.0611 36.0926C87.0611 35.0682 87.8146 34.3076 88.8953 34.3076C89.9439 34.3076 90.7632 35.0682 90.7953 36.0595H90.7961ZM89.8782 36.0926C89.8782 35.5303 89.4853 35.1006 88.9282 35.1006C88.3711 35.1006 87.9453 35.531 87.9453 36.0926C87.9453 36.6218 88.3382 37.0515 88.8632 37.0515C89.4525 37.0515 89.8461 36.655 89.8782 36.0926ZM74.7418 30.6035C74.7418 31.5955 73.9225 32.3892 72.8746 32.3892C71.8261 32.3892 71.0389 31.6286 71.0389 30.6698C71.0389 29.6446 71.7932 28.8841 72.8746 28.8841C73.9553 28.8509 74.7418 29.6122 74.7418 30.6035ZM71.9568 30.6035C71.9568 31.199 72.3496 31.5955 72.9068 31.5955C73.4639 31.5955 73.8568 31.1658 73.8568 30.6035C73.8568 30.0743 73.4311 29.6446 72.9396 29.6446C72.3825 29.6115 71.9568 30.0412 71.9568 30.6035ZM67.2068 26.8676C67.6646 25.8417 68.0253 24.8829 68.4839 23.9572C68.8118 23.2954 69.8268 23.2954 70.1553 23.9897C70.5811 24.8829 70.9411 25.8425 71.3675 26.8013C70.9082 26.735 70.4175 27.032 70.1875 26.4041C70.1546 26.3377 69.9589 26.3377 69.8603 26.3377H68.7461C68.6153 26.3377 68.4511 26.3046 68.4182 26.4041C68.1896 27.0652 67.6646 26.735 67.2061 26.8669L67.2068 26.8676ZM69.8275 25.544C69.6632 25.1143 69.5653 24.6846 69.2703 24.2874C69.2046 24.4201 69.1389 24.5188 69.1061 24.5852C68.6803 25.6103 68.6803 25.6103 69.8275 25.544Z" fill="#212429"/>
<path fill-rule="evenodd" clip-rule="evenodd" d="M86.1765 26.8338H84.8986C84.4072 26.8338 84.1129 26.536 84.0801 26.0407V23.8246C84.0801 23.4612 84.2765 23.4937 84.5058 23.5268C84.7351 23.5268 84.9972 23.4281 84.9972 23.8578C84.9644 24.4532 84.9972 25.048 84.9972 25.6435C84.9972 25.9412 85.0958 26.0068 85.3579 26.04C86.4722 26.0732 86.4722 26.0732 86.4722 24.9824C86.4722 24.6847 86.5044 24.3869 86.4722 24.1223C86.4058 23.6595 86.5701 23.4937 87.0615 23.5268C87.3237 23.56 87.4215 23.6263 87.3887 23.8909C87.3565 24.4857 87.3887 25.048 87.3887 25.6428C87.3887 25.8418 87.3237 26.0068 87.6508 26.0732C87.9794 26.1063 87.7822 26.4697 87.8151 26.6687C87.8479 26.9332 87.6508 26.8669 87.5201 26.8669C87.0615 26.8338 86.6351 26.8338 86.1772 26.8338" fill="#212429"/>
<path d="M96.4643 26.8673C95.9728 26.7671 95.4814 27.0649 95.285 26.4701C95.2521 26.3706 95.1207 26.4038 94.99 26.4038H93.7121C93.6142 26.4038 93.45 26.437 93.45 26.4701C93.2535 27.1312 92.7621 26.7347 92.2707 26.8998C92.7293 25.8415 93.1228 24.8495 93.6135 23.9238C93.9742 23.262 94.9243 23.3615 95.2521 24.0557C95.6778 24.9158 96.0378 25.8415 96.4643 26.8673ZM94.4 24.254C94.1714 24.7175 93.9743 25.114 93.8757 25.5444H94.8914C94.7607 25.114 94.6293 24.7175 94.4 24.254ZM83.195 36.0268V35.9604C83.2607 35.4313 83.0643 34.8689 83.2935 34.3398C84.1778 34.3729 85.0628 34.1415 85.915 34.5388C86.4057 34.7695 86.57 35.2662 86.5364 35.7953C86.5043 36.3577 86.1764 36.7542 85.62 36.92C85.2271 37.0519 84.8335 37.0188 84.44 36.9856C84.1778 36.9856 84.0143 37.0188 84.08 37.3497C84.145 37.8457 83.785 37.6799 83.5557 37.713C83.2607 37.7462 83.1628 37.6467 83.195 37.3497C83.2278 36.9193 83.195 36.4896 83.195 36.0268ZM84.735 36.1926H85.0957C85.39 36.1926 85.6528 36.0599 85.62 35.729C85.62 35.3981 85.39 35.233 85.0957 35.233H84.3743C84.2107 35.233 84.1128 35.2662 84.08 35.4976C84.0471 36.1587 84.0471 36.1919 84.735 36.1919" fill="#212429"/>
<path fill-rule="evenodd" clip-rule="evenodd" d="M107.113 28.9837C107.047 29.0825 107.014 29.1488 106.949 29.2144C106.654 29.6448 106.163 30.0745 106.163 30.5049C106.163 30.9345 106.654 31.3642 106.916 31.7946C106.981 31.9265 107.08 32.0585 107.145 32.1911C106.359 32.4225 106.162 32.3569 105.769 31.6951C105.54 31.3642 105.474 30.8351 104.852 30.9345C104.623 30.9677 104.524 31.034 104.557 31.2655V31.662C104.557 32.3231 104.524 32.3562 103.869 32.2906C103.705 32.2575 103.639 32.2243 103.639 32.026V29.182C103.639 28.7523 103.968 28.9174 104.164 28.9174C104.361 28.8842 104.59 28.8511 104.556 29.2151C104.556 29.3471 104.524 29.4458 104.556 29.5785C104.59 29.7443 104.393 30.0413 104.721 30.0745C104.983 30.1076 105.311 30.2071 105.474 29.8438C105.507 29.7443 105.606 29.678 105.639 29.5785C105.933 28.9505 106.424 28.8179 107.113 28.9837ZM111.7 32.2575C111.994 31.7946 112.256 31.3311 112.584 30.9021C112.781 30.6368 112.748 30.4385 112.551 30.174C112.256 29.8099 112.027 29.4134 111.732 28.9837C112.518 28.686 112.911 29.1156 113.239 29.7111C113.534 30.2735 113.567 30.2403 113.927 29.7111C113.968 29.6734 114.001 29.6284 114.026 29.5785C114.288 28.9174 114.779 28.8179 115.434 28.9837C115.206 29.3139 115.009 29.678 114.746 29.9757C114.451 30.3391 114.386 30.6368 114.714 31.034C115.009 31.3974 115.205 31.7946 115.467 32.1911C114.616 32.3894 114.517 32.3569 114.059 31.5956C113.567 30.8351 113.534 30.8351 113.141 31.5956C112.846 32.2243 112.387 32.4225 111.699 32.2575H111.7ZM101.379 28.8842C101.969 28.8842 102.493 29.05 102.854 29.5453C102.919 29.6448 103.148 29.7775 102.919 29.9094C102.722 30.0089 102.559 30.2735 102.264 30.1408C102.198 30.1076 102.165 30.0089 102.099 29.975C101.674 29.6116 100.921 29.6448 100.592 30.0089C100.298 30.3391 100.298 30.9345 100.592 31.2979C100.953 31.6944 101.609 31.7283 102.067 31.3642C102.198 31.2655 102.231 31.034 102.526 31.1335C103.05 31.3642 103.116 31.53 102.69 31.9265C102.067 32.4889 101.346 32.522 100.593 32.2906C99.9043 32.0585 99.5443 31.53 99.4786 30.8351C99.4128 30.1408 99.675 29.5785 100.264 29.2151C100.579 28.9629 100.979 28.8443 101.379 28.8842ZM77.3957 23.4282C78.1171 23.4282 78.6407 23.5933 79.0343 24.0562C79.1321 24.1556 79.3943 24.3207 79.1 24.4527C78.9028 24.5522 78.7393 24.9494 78.4114 24.6185L78.2807 24.4858C77.855 24.1225 77.1336 24.1556 76.8064 24.5522C76.5114 24.9162 76.5114 25.4785 76.8064 25.8087C77.1664 26.2052 77.855 26.2391 78.2807 25.8751C78.4114 25.7756 78.445 25.5442 78.7064 25.6768C79.2636 25.9414 79.2964 26.0402 78.8378 26.4698C78.1821 27.0985 76.9043 27.0985 76.2164 26.5037C75.5614 25.9082 75.4307 24.8499 75.9878 24.1225C76.315 23.6596 76.8721 23.4282 77.3957 23.4282ZM73.3664 23.4282C74.0871 23.4282 74.6114 23.5933 75.0043 24.0893C75.1028 24.1888 75.2664 24.3539 75.07 24.4534C74.8736 24.5522 74.6771 24.9494 74.3814 24.6516C74.2178 24.4858 74.0543 24.3539 73.8243 24.2876C73.3336 24.1556 72.8093 24.3207 72.6128 24.718C72.4157 25.1145 72.5143 25.6768 72.8414 25.9414C73.2021 26.2391 73.825 26.206 74.2178 25.8751C74.3493 25.7431 74.4471 25.5442 74.7093 25.7092C75.2007 25.9745 75.2336 26.0733 74.8407 26.4705C74.2836 26.9997 73.235 27.1316 72.5143 26.7351C71.8593 26.4035 71.5314 25.71 71.6621 24.8499C71.7607 23.9898 72.5143 23.4282 73.3664 23.4282ZM89.5514 28.9505H90.9928C91.3857 28.9174 91.255 29.2151 91.2878 29.4134C91.2878 29.6116 91.3207 29.8099 90.9928 29.8099C90.01 29.8431 90.01 29.8762 90.01 30.9014C90.01 31.2323 89.9771 31.5625 90.01 31.8934C90.0428 32.2575 89.9443 32.3562 89.5514 32.3562C89.1586 32.3562 89.06 32.2243 89.0928 31.8602C89.125 31.2979 89.0928 30.7695 89.0928 30.2071C89.0928 29.8762 88.9943 29.7775 88.7 29.8106H88.3064C88.0114 29.8106 87.7821 29.8431 87.7821 29.4134C87.7821 29.0169 87.9464 28.9505 88.2736 28.9837C88.6993 28.9505 89.125 28.9505 89.5514 28.9505ZM80.9671 34.3734H82.4086C82.8014 34.3402 82.7036 34.6048 82.7036 34.8362C82.7036 35.0352 82.7364 35.2327 82.4086 35.2327C82.0814 35.2327 81.655 35.0684 81.4586 35.3329C81.2943 35.5636 81.4257 35.9609 81.4257 36.2918C81.4257 36.6883 81.3928 37.0848 81.4257 37.482C81.4586 37.8785 81.1636 37.7466 80.9671 37.7466C80.7707 37.7466 80.5086 37.8461 80.5086 37.4489V35.6631C80.5086 35.2998 80.41 35.1671 80.05 35.2003C79.9186 35.2335 79.7878 35.2003 79.6571 35.2003C79.3286 35.2335 79.2307 35.134 79.2307 34.8038C79.2307 34.4721 79.2964 34.3402 79.6564 34.3734C80.0828 34.4065 80.5086 34.3734 80.9671 34.3734Z" fill="#212429"/>
<path fill-rule="evenodd" clip-rule="evenodd" d="M30.8714 61.4231C14.13 61.4231 0.5 47.6671 0.5 30.7692C0.5 13.8706 14.1293 0.115234 30.8714 0.115234C34.8357 0.115234 38.6693 0.875095 42.3064 2.36309C42.9614 2.62768 43.2564 3.35509 42.9943 4.01691C42.7321 4.678 42.0114 4.97575 41.3564 4.71116C38.0248 3.35284 34.4646 2.65665 30.8714 2.66084C15.505 2.66084 2.98929 15.293 2.98929 30.8016C2.98929 46.311 15.505 58.9431 30.8714 58.9431C46.2371 58.9431 58.7529 46.311 58.7529 30.8016C58.7529 26.7673 57.9336 22.8988 56.2957 19.261C56.0007 18.633 56.2957 17.8725 56.9179 17.574C57.5407 17.277 58.2943 17.574 58.5893 18.2027C60.3586 22.1714 61.2429 26.404 61.2429 30.8016C61.2429 47.6671 47.6136 61.4231 30.8714 61.4231Z" fill="#3DAE2B"/>
<path fill-rule="evenodd" clip-rule="evenodd" d="M58.0658 9.86962C58.0658 13.772 54.9201 16.9463 51.0544 16.9463C47.188 16.9463 44.043 13.772 44.043 9.86962C44.043 5.96795 47.188 2.79297 51.0544 2.79297C51.9715 2.79297 52.8887 2.99195 53.708 3.32213C55.3751 4.00927 56.7217 5.30942 57.4758 6.95995C57.8365 7.85246 58.0658 8.84446 58.0658 9.86962Z" fill="#FFC600"/>
</svg>
