<svg width="77" height="77" viewBox="0 0 77 77" fill="none" xmlns="http://www.w3.org/2000/svg">
<path d="M-3.36578e-06 38.5C-4.25844e-06 28.2892 4.05623 18.4965 11.2764 11.2764C18.4965 4.05624 28.2892 4.25844e-06 38.5 3.36578e-06C48.7108 2.47312e-06 58.5035 4.05624 65.7236 11.2764C72.9438 18.4965 77 28.2892 77 38.5C77 48.7108 72.9438 58.5035 65.7236 65.7236C58.5035 72.9438 48.7108 77 38.5 77C28.2892 77 18.4965 72.9438 11.2764 65.7236C4.05623 58.5035 -2.47312e-06 48.7108 -3.36578e-06 38.5ZM36.0937 55.3438C36.0937 55.9819 36.3473 56.594 36.7985 57.0452C37.2498 57.4965 37.8618 57.75 38.5 57.75C39.1382 57.75 39.7502 57.4965 40.2015 57.0452C40.6527 56.594 40.9062 55.9819 40.9062 55.3438L40.9062 27.4649L51.2339 37.7974C51.6857 38.2492 52.2985 38.503 52.9375 38.503C53.5765 38.503 54.1893 38.2492 54.6411 37.7974C55.093 37.3455 55.3468 36.7327 55.3468 36.0938C55.3468 35.4548 55.093 34.842 54.6411 34.3901L40.2036 19.9526C39.9801 19.7285 39.7146 19.5508 39.4222 19.4295C39.1299 19.3081 38.8165 19.2457 38.5 19.2457C38.1835 19.2457 37.8701 19.3081 37.5778 19.4295C37.2854 19.5508 37.0199 19.7285 36.7964 19.9526L22.3589 34.3901C21.907 34.842 21.6532 35.4548 21.6532 36.0938C21.6532 36.7327 21.907 37.3456 22.3589 37.7974C22.8107 38.2492 23.4235 38.503 24.0625 38.503C24.7015 38.503 25.3143 38.2492 25.7661 37.7974L36.0937 27.4649L36.0937 55.3438Z" fill="#BDBDBD"/>
</svg>
