<svg width="41" height="44" viewBox="0 0 41 44" fill="none" xmlns="http://www.w3.org/2000/svg">
<path d="M40.36 10.7233L20.86 0.223254C20.7515 0.165474 20.6304 0.135254 20.5075 0.135254C20.3846 0.135254 20.2635 0.165474 20.155 0.223254L0.655 10.7233C0.533841 10.786 0.4321 10.8806 0.360734 10.9969C0.289369 11.1132 0.251083 11.2468 0.25 11.3833V32.3833C0.250362 32.5189 0.287522 32.652 0.357523 32.7682C0.427523 32.8844 0.527741 32.9795 0.6475 33.0433L20.1475 43.5433C20.256 43.601 20.3771 43.6313 20.5 43.6313C20.6229 43.6313 20.744 43.601 20.8525 43.5433L40.3525 33.0433C40.4723 32.9795 40.5725 32.8844 40.6425 32.7682C40.7125 32.652 40.7496 32.5189 40.75 32.3833V11.3833C40.7504 11.2483 40.7143 11.1158 40.6457 10.9997C40.5771 10.8835 40.4784 10.788 40.36 10.7233ZM20.5 1.73825L38.425 11.3833L33.175 14.2108L15.8725 4.22825L20.5 1.73825ZM2.575 11.3833L8.2225 8.38325L25.5175 18.3283L20.5 21.0283L2.575 11.3833ZM14.32 5.06075L31.6225 15.0433L27.07 17.4958L9.775 7.50575L14.32 5.06075ZM28.0675 18.6583L32.1475 16.4683V22.0633L30.5725 20.5033C30.485 20.4163 30.3774 20.3523 30.2592 20.3169C30.1411 20.2815 30.016 20.2758 29.8951 20.3002C29.7742 20.3247 29.6612 20.3786 29.5661 20.4572C29.471 20.5358 29.3968 20.6366 29.35 20.7508L28.0675 23.8408V18.6583ZM1.75 12.6358L19.75 22.3333V41.6308L1.75 31.9333V12.6358ZM21.25 41.6308V22.3333L26.5675 19.4683V27.6133C26.5762 27.7812 26.6411 27.9413 26.7517 28.068C26.8623 28.1946 27.0123 28.2804 27.1776 28.3115C27.3428 28.3427 27.5138 28.3174 27.6629 28.2397C27.8121 28.162 27.9308 28.0365 28 27.8833L30.295 22.3408L32.35 24.3808C32.4549 24.4865 32.5889 24.5587 32.735 24.588C32.8811 24.6173 33.0325 24.6024 33.1701 24.5453C33.3077 24.4882 33.4251 24.3913 33.5075 24.2672C33.5898 24.1431 33.6334 23.9972 33.6325 23.8483V15.6583L39.2425 12.6583V31.9333L21.25 41.6308Z" fill="white"/>
</svg>
