<svg width="31" height="30" viewBox="0 0 31 30" fill="none" xmlns="http://www.w3.org/2000/svg">
<path fill-rule="evenodd" clip-rule="evenodd" d="M15.4997 0.216797C7.39967 0.216797 0.833008 6.78346 0.833008 14.8835C0.833008 22.9835 7.39967 29.5501 15.4997 29.5501C23.5997 29.5501 30.1663 22.9835 30.1663 14.8835C30.1663 6.78346 23.5997 0.216797 15.4997 0.216797ZM10.1663 13.5501C9.81272 13.5501 9.47358 13.6906 9.22353 13.9407C8.97348 14.1907 8.83301 14.5298 8.83301 14.8835C8.83301 15.2371 8.97348 15.5762 9.22353 15.8263C9.47358 16.0763 9.81272 16.2168 10.1663 16.2168H20.833C21.1866 16.2168 21.5258 16.0763 21.7758 15.8263C22.0259 15.5762 22.1663 15.2371 22.1663 14.8835C22.1663 14.5298 22.0259 14.1907 21.7758 13.9407C21.5258 13.6906 21.1866 13.5501 20.833 13.5501H10.1663Z" fill="#BDBDBD"/>
</svg>
