<svg width="31" height="30" viewBox="0 0 31 30" fill="none" xmlns="http://www.w3.org/2000/svg">
<path fill-rule="evenodd" clip-rule="evenodd" d="M15.4997 0.216797C7.39967 0.216797 0.833008 6.78346 0.833008 14.8835C0.833008 22.9835 7.39967 29.5501 15.4997 29.5501C23.5997 29.5501 30.1663 22.9835 30.1663 14.8835C30.1663 6.78346 23.5997 0.216797 15.4997 0.216797ZM16.833 20.2168C16.833 20.5704 16.6925 20.9096 16.4425 21.1596C16.1924 21.4097 15.8533 21.5501 15.4997 21.5501C15.1461 21.5501 14.8069 21.4097 14.5569 21.1596C14.3068 20.9096 14.1663 20.5704 14.1663 20.2168V16.2168H10.1663C9.81272 16.2168 9.47358 16.0763 9.22353 15.8263C8.97348 15.5762 8.83301 15.2371 8.83301 14.8835C8.83301 14.5298 8.97348 14.1907 9.22353 13.9407C9.47358 13.6906 9.81272 13.5501 10.1663 13.5501H14.1663V9.55013C14.1663 9.19651 14.3068 8.85737 14.5569 8.60732C14.8069 8.35727 15.1461 8.2168 15.4997 8.2168C15.8533 8.2168 16.1924 8.35727 16.4425 8.60732C16.6925 8.85737 16.833 9.19651 16.833 9.55013V13.5501H20.833C21.1866 13.5501 21.5258 13.6906 21.7758 13.9407C22.0259 14.1907 22.1663 14.5298 22.1663 14.8835C22.1663 15.2371 22.0259 15.5762 21.7758 15.8263C21.5258 16.0763 21.1866 16.2168 20.833 16.2168H16.833V20.2168Z" fill="#1AA34F"/>
</svg>
