<svg width="25" height="24" viewBox="0 0 25 24" fill="none" xmlns="http://www.w3.org/2000/svg">
<path d="M12.5 0C10.1266 0 7.80655 0.703788 5.83316 2.02236C3.85977 3.34094 2.3217 5.21509 1.41345 7.4078C0.505199 9.60051 0.267559 12.0133 0.730582 14.3411C1.1936 16.6689 2.33649 18.8071 4.01472 20.4853C5.69295 22.1635 7.83115 23.3064 10.1589 23.7694C12.4867 24.2324 14.8995 23.9948 17.0922 23.0866C19.2849 22.1783 21.1591 20.6402 22.4776 18.6668C23.7962 16.6935 24.5 14.3734 24.5 12C24.4974 8.81821 23.2322 5.76751 20.9824 3.51764C18.7325 1.26778 15.6818 0.00264818 12.5 0V0ZM12.52 19C12.3887 19.0007 12.2585 18.9754 12.1369 18.9258C12.0154 18.8761 11.9048 18.803 11.8114 18.7106C11.623 18.524 11.5163 18.2702 11.515 18.005C11.5137 17.7398 11.6178 17.4849 11.8044 17.2964C11.991 17.108 12.2448 17.0013 12.51 17H12.52C12.7852 17 13.0396 17.1054 13.2271 17.2929C13.4146 17.4804 13.52 17.7348 13.52 18C13.52 18.2652 13.4146 18.5196 13.2271 18.7071C13.0396 18.8946 12.7852 19 12.52 19ZM14.43 12.505C14.1624 12.6339 13.9346 12.8329 13.7709 13.0808C13.6071 13.3286 13.5135 13.6162 13.5 13.913C13.5015 14.1828 13.398 14.4426 13.2113 14.6374C13.0247 14.8323 12.7696 14.9469 12.5 14.957C12.371 14.9617 12.2424 14.9405 12.1218 14.8946C12.0012 14.8487 11.891 14.779 11.7978 14.6898C11.7045 14.6006 11.6301 14.4936 11.579 14.3751C11.5279 14.2566 11.501 14.1291 11.5 14C11.4976 13.3306 11.6795 12.6735 12.026 12.1007C12.3724 11.5279 12.87 11.0616 13.464 10.753C13.8335 10.5495 14.1292 10.2344 14.3088 9.85274C14.4884 9.47108 14.5427 9.0424 14.464 8.628C14.3861 8.2332 14.1922 7.87059 13.9073 7.58649C13.6223 7.30239 13.259 7.10968 12.864 7.033C12.5754 6.97958 12.2786 6.99034 11.9946 7.06452C11.7106 7.13869 11.4464 7.27446 11.2208 7.4622C10.9952 7.64993 10.8136 7.88502 10.6891 8.15079C10.5645 8.41656 10.4999 8.70649 10.5 9C10.5 9.26522 10.3946 9.51957 10.2071 9.70711C10.0196 9.89464 9.76522 10 9.50001 10C9.23479 10 8.98044 9.89464 8.7929 9.70711C8.60536 9.51957 8.50001 9.26522 8.50001 9C8.50026 8.29451 8.68709 7.60163 9.04156 6.99165C9.39603 6.38167 9.90552 5.8763 10.5184 5.52679C11.1312 5.17728 11.8256 4.99606 12.531 5.00154C13.2365 5.00701 13.928 5.19897 14.5353 5.55794C15.1427 5.91692 15.6442 6.43013 15.9892 7.04554C16.3342 7.66094 16.5102 8.35663 16.4995 9.06204C16.4889 9.76746 16.2918 10.4575 15.9283 11.0622C15.5649 11.6668 15.0479 12.1646 14.43 12.505Z" fill="#E0E0E0"/>
</svg>
