<svg width="123" height="159" viewBox="0 0 123 159" fill="none" xmlns="http://www.w3.org/2000/svg">
<path d="M2.06337 4.87607C3.1641 4.87607 4.05642 3.98226 4.05642 2.87969C4.05642 1.77711 3.1641 0.883301 2.06337 0.883301C0.962634 0.883301 0.0703125 1.77711 0.0703125 2.87969C0.0703125 3.98226 0.962634 4.87607 2.06337 4.87607Z" fill="#1AA34F"/>
<path d="M21.7518 4.87607C22.8526 4.87607 23.7449 3.98226 23.7449 2.87969C23.7449 1.77711 22.8526 0.883301 21.7518 0.883301C20.6511 0.883301 19.7588 1.77711 19.7588 2.87969C19.7588 3.98226 20.6511 4.87607 21.7518 4.87607Z" fill="#1AA34F"/>
<path d="M43.4353 2.87969C43.4353 3.98148 42.5439 4.87607 41.4423 4.87607C40.3423 4.87607 39.4492 3.98313 39.4492 2.87969C39.4492 1.77625 40.3423 0.883301 41.4423 0.883301C42.5439 0.883301 43.4353 1.77625 43.4353 2.87969Z" fill="#1AA34F"/>
<path d="M63.1258 2.87969C63.1258 3.98148 62.2343 4.87607 61.1327 4.87607C60.0327 4.87607 59.1396 3.98313 59.1396 2.87969C59.1396 1.77625 60.0327 0.883301 61.1327 0.883301C62.2343 0.883301 63.1258 1.77625 63.1258 2.87969Z" fill="#1AA34F"/>
<path d="M82.8162 2.87969C82.8162 3.98148 81.9247 4.87607 80.8231 4.87607C79.7232 4.87607 78.8301 3.98313 78.8301 2.87969C78.8301 1.77625 79.7232 0.883301 80.8231 0.883301C81.9247 0.883301 82.8162 1.77625 82.8162 2.87969Z" fill="#1AA34F"/>
<path d="M100.514 4.87607C101.614 4.87607 102.507 3.98226 102.507 2.87969C102.507 1.77711 101.614 0.883301 100.514 0.883301C99.4128 0.883301 98.5205 1.77711 98.5205 2.87969C98.5205 3.98226 99.4128 4.87607 100.514 4.87607Z" fill="#1AA34F"/>
<path d="M122.197 2.87969C122.197 3.98148 121.306 4.87607 120.204 4.87607C119.104 4.87607 118.211 3.98313 118.211 2.87969C118.211 1.77625 119.104 0.883301 120.204 0.883301C121.304 0.883301 122.197 1.77625 122.197 2.87969Z" fill="#1AA34F"/>
<path d="M2.06337 26.8771C3.1641 26.8771 4.05642 25.9832 4.05642 24.8807C4.05642 23.7781 3.1641 22.8843 2.06337 22.8843C0.962634 22.8843 0.0703125 23.7781 0.0703125 24.8807C0.0703125 25.9832 0.962634 26.8771 2.06337 26.8771Z" fill="#1AA34F"/>
<path d="M21.7518 26.8771C22.8526 26.8771 23.7449 25.9832 23.7449 24.8807C23.7449 23.7781 22.8526 22.8843 21.7518 22.8843C20.6511 22.8843 19.7588 23.7781 19.7588 24.8807C19.7588 25.9832 20.6511 26.8771 21.7518 26.8771Z" fill="#1AA34F"/>
<path d="M43.4353 24.8807C43.4353 25.9825 42.5439 26.8771 41.4423 26.8771C40.3423 26.8771 39.4492 25.9841 39.4492 24.8807C39.4492 23.7789 40.3407 22.8843 41.4423 22.8843C42.5439 22.8843 43.4353 23.7772 43.4353 24.8807Z" fill="#1AA34F"/>
<path d="M63.1258 24.8807C63.1258 25.9825 62.2343 26.8771 61.1327 26.8771C60.0327 26.8771 59.1396 25.9841 59.1396 24.8807C59.1396 23.7789 60.0311 22.8843 61.1327 22.8843C62.2343 22.8843 63.1258 23.7772 63.1258 24.8807Z" fill="#1AA34F"/>
<path d="M82.8162 24.8807C82.8162 25.9825 81.9247 26.8771 80.8231 26.8771C79.7232 26.8771 78.8301 25.9841 78.8301 24.8807C78.8301 23.7789 79.7215 22.8843 80.8231 22.8843C81.9247 22.8843 82.8162 23.7772 82.8162 24.8807Z" fill="#1AA34F"/>
<path d="M100.514 26.8771C101.614 26.8771 102.507 25.9832 102.507 24.8807C102.507 23.7781 101.614 22.8843 100.514 22.8843C99.4128 22.8843 98.5205 23.7781 98.5205 24.8807C98.5205 25.9832 99.4128 26.8771 100.514 26.8771Z" fill="#1AA34F"/>
<path d="M122.197 24.8807C122.197 25.9825 121.306 26.8771 120.204 26.8771C119.104 26.8771 118.211 25.9841 118.211 24.8807C118.211 23.7789 119.102 22.8843 120.204 22.8843C121.304 22.8843 122.197 23.7772 122.197 24.8807Z" fill="#1AA34F"/>
<path d="M4.05642 46.8816C4.05642 47.9834 3.1646 48.878 2.06255 48.878C0.962137 48.8764 0.0703125 47.9834 0.0703125 46.8816C0.0703125 45.7798 0.962137 44.8853 2.06419 44.8853C3.1646 44.8853 4.05642 45.7798 4.05642 46.8816Z" fill="#1AA34F"/>
<path d="M23.7449 46.8816C23.7449 47.9834 22.8534 48.878 21.7518 48.878C20.6519 48.878 19.7588 47.9851 19.7588 46.8816C19.7588 45.7798 20.6502 44.8853 21.7518 44.8853C22.8534 44.8853 23.7449 45.7798 23.7449 46.8816Z" fill="#1AA34F"/>
<path d="M43.4353 46.8816C43.4353 47.9834 42.5439 48.878 41.4423 48.878C40.3423 48.878 39.4492 47.9851 39.4492 46.8816C39.4492 45.7798 40.3407 44.8853 41.4423 44.8853C42.5439 44.8853 43.4353 45.7798 43.4353 46.8816Z" fill="#1AA34F"/>
<path d="M63.1258 46.8816C63.1258 47.9834 62.2343 48.878 61.1327 48.878C60.0327 48.878 59.1396 47.9851 59.1396 46.8816C59.1396 45.7798 60.0311 44.8853 61.1327 44.8853C62.2343 44.8853 63.1258 45.7798 63.1258 46.8816Z" fill="#1AA34F"/>
<path d="M82.8162 46.8816C82.8162 47.9834 81.9247 48.878 80.8231 48.878C79.7232 48.878 78.8301 47.9851 78.8301 46.8816C78.8301 45.7798 79.7215 44.8853 80.8231 44.8853C81.9247 44.8853 82.8162 45.7798 82.8162 46.8816Z" fill="#1AA34F"/>
<path d="M102.507 46.8816C102.507 47.9834 101.615 48.878 100.514 48.878C99.412 48.878 98.5205 47.9851 98.5205 46.8816C98.5205 45.7798 99.412 44.8853 100.514 44.8853C101.615 44.8853 102.507 45.7798 102.507 46.8816Z" fill="#1AA34F"/>
<path d="M122.197 46.8816C122.197 47.9834 121.306 48.878 120.204 48.878C119.104 48.878 118.211 47.9851 118.211 46.8816C118.211 45.7798 119.102 44.8853 120.204 44.8853C121.304 44.8853 122.197 45.7798 122.197 46.8816Z" fill="#1AA34F"/>
<path d="M2.06337 70.879C3.1641 70.879 4.05642 69.9852 4.05642 68.8826C4.05642 67.78 3.1641 66.8862 2.06337 66.8862C0.962634 66.8862 0.0703125 67.78 0.0703125 68.8826C0.0703125 69.9852 0.962634 70.879 2.06337 70.879Z" fill="#1AA34F"/>
<path d="M21.7518 70.879C22.8526 70.879 23.7449 69.9852 23.7449 68.8826C23.7449 67.78 22.8526 66.8862 21.7518 66.8862C20.6511 66.8862 19.7588 67.78 19.7588 68.8826C19.7588 69.9852 20.6511 70.879 21.7518 70.879Z" fill="#1AA34F"/>
<path d="M43.4353 68.8826C43.4353 69.9844 42.5439 70.879 41.4423 70.879C40.3423 70.879 39.4492 69.9861 39.4492 68.8826C39.4492 67.7792 40.3407 66.8862 41.4423 66.8862C42.5439 66.8862 43.4353 67.7808 43.4353 68.8826Z" fill="#1AA34F"/>
<path d="M63.1258 68.8826C63.1258 69.9844 62.2343 70.879 61.1327 70.879C60.0327 70.879 59.1396 69.9861 59.1396 68.8826C59.1396 67.7792 60.0311 66.8862 61.1327 66.8862C62.2343 66.8862 63.1258 67.7808 63.1258 68.8826Z" fill="#1AA34F"/>
<path d="M82.8162 68.8826C82.8162 69.9844 81.9247 70.879 80.8231 70.879C79.7232 70.879 78.8301 69.9861 78.8301 68.8826C78.8301 67.7792 79.7215 66.8862 80.8231 66.8862C81.9247 66.8862 82.8162 67.7808 82.8162 68.8826Z" fill="#1AA34F"/>
<path d="M100.514 70.879C101.614 70.879 102.507 69.9852 102.507 68.8826C102.507 67.78 101.614 66.8862 100.514 66.8862C99.4128 66.8862 98.5205 67.78 98.5205 68.8826C98.5205 69.9852 99.4128 70.879 100.514 70.879Z" fill="#1AA34F"/>
<path d="M122.197 68.8826C122.197 69.9844 121.306 70.879 120.204 70.879C119.104 70.879 118.211 69.9861 118.211 68.8826C118.211 67.7792 119.102 66.8862 120.204 66.8862C121.304 66.8862 122.197 67.7808 122.197 68.8826Z" fill="#1AA34F"/>
<path d="M4.05642 90.8836C4.05642 91.9854 3.1646 92.88 2.06255 92.88C0.962137 92.88 0.0703125 91.9854 0.0703125 90.8836C0.0703125 89.7818 0.962137 88.8872 2.06419 88.8872C3.1646 88.8872 4.05642 89.7818 4.05642 90.8836Z" fill="#1AA34F"/>
<path d="M23.7449 90.8836C23.7449 91.9854 22.8534 92.88 21.7518 92.88C20.6519 92.88 19.7588 91.987 19.7588 90.8836C19.7588 89.7818 20.6502 88.8872 21.7518 88.8872C22.8534 88.8872 23.7449 89.7818 23.7449 90.8836Z" fill="#1AA34F"/>
<path d="M43.4353 90.8836C43.4353 91.9854 42.5439 92.88 41.4423 92.88C40.3423 92.88 39.4492 91.987 39.4492 90.8836C39.4492 89.7818 40.3407 88.8872 41.4423 88.8872C42.5439 88.8872 43.4353 89.7818 43.4353 90.8836Z" fill="#1AA34F"/>
<path d="M63.1258 90.8836C63.1258 91.9854 62.2343 92.88 61.1327 92.88C60.0327 92.88 59.1396 91.987 59.1396 90.8836C59.1396 89.7818 60.0311 88.8872 61.1327 88.8872C62.2343 88.8872 63.1258 89.7818 63.1258 90.8836Z" fill="#1AA34F"/>
<path d="M82.8162 90.8836C82.8162 91.9854 81.9247 92.88 80.8231 92.88C79.7232 92.88 78.8301 91.987 78.8301 90.8836C78.8301 89.7818 79.7215 88.8872 80.8231 88.8872C81.9247 88.8872 82.8162 89.7818 82.8162 90.8836Z" fill="#1AA34F"/>
<path d="M102.507 90.8836C102.507 91.9854 101.615 92.88 100.514 92.88C99.412 92.88 98.5205 91.987 98.5205 90.8836C98.5205 89.7818 99.412 88.8872 100.514 88.8872C101.615 88.8872 102.507 89.7818 102.507 90.8836Z" fill="#1AA34F"/>
<path d="M122.197 90.8836C122.197 91.9854 121.306 92.88 120.204 92.88C119.104 92.88 118.211 91.987 118.211 90.8836C118.211 89.7818 119.102 88.8872 120.204 88.8872C121.304 88.8872 122.197 89.7818 122.197 90.8836Z" fill="#1AA34F"/>
<path d="M2.06337 114.881C3.1641 114.881 4.05642 113.988 4.05642 112.885C4.05642 111.782 3.1641 110.889 2.06337 110.889C0.962634 110.889 0.0703125 111.782 0.0703125 112.885C0.0703125 113.988 0.962634 114.881 2.06337 114.881Z" fill="#1AA34F"/>
<path d="M21.7518 114.881C22.8526 114.881 23.7449 113.988 23.7449 112.885C23.7449 111.782 22.8526 110.889 21.7518 110.889C20.6511 110.889 19.7588 111.782 19.7588 112.885C19.7588 113.988 20.6511 114.881 21.7518 114.881Z" fill="#1AA34F"/>
<path d="M43.4353 112.885C43.4353 113.987 42.5439 114.881 41.4423 114.881C40.3423 114.881 39.4492 113.989 39.4492 112.885C39.4492 111.783 40.3407 110.889 41.4423 110.889C42.5439 110.89 43.4353 111.783 43.4353 112.885Z" fill="#1AA34F"/>
<path d="M63.1258 112.885C63.1258 113.987 62.2343 114.881 61.1327 114.881C60.0327 114.881 59.1396 113.989 59.1396 112.885C59.1396 111.783 60.0311 110.889 61.1327 110.889C62.2343 110.89 63.1258 111.783 63.1258 112.885Z" fill="#1AA34F"/>
<path d="M82.8162 112.885C82.8162 113.987 81.9247 114.881 80.8231 114.881C79.7232 114.881 78.8301 113.989 78.8301 112.885C78.8301 111.783 79.7215 110.889 80.8231 110.889C81.9247 110.89 82.8162 111.783 82.8162 112.885Z" fill="#1AA34F"/>
<path d="M100.514 114.881C101.614 114.881 102.507 113.988 102.507 112.885C102.507 111.782 101.614 110.889 100.514 110.889C99.4128 110.889 98.5205 111.782 98.5205 112.885C98.5205 113.988 99.4128 114.881 100.514 114.881Z" fill="#1AA34F"/>
<path d="M122.197 112.885C122.197 113.987 121.306 114.881 120.204 114.881C119.104 114.881 118.211 113.989 118.211 112.885C118.211 111.783 119.102 110.889 120.204 110.889C121.304 110.89 122.197 111.783 122.197 112.885Z" fill="#1AA34F"/>
<path d="M2.06337 136.882C3.1641 136.882 4.05642 135.989 4.05642 134.886C4.05642 133.783 3.1641 132.89 2.06337 132.89C0.962634 132.89 0.0703125 133.783 0.0703125 134.886C0.0703125 135.989 0.962634 136.882 2.06337 136.882Z" fill="#1AA34F"/>
<path d="M21.7518 136.882C22.8526 136.882 23.7449 135.989 23.7449 134.886C23.7449 133.783 22.8526 132.89 21.7518 132.89C20.6511 132.89 19.7588 133.783 19.7588 134.886C19.7588 135.989 20.6511 136.882 21.7518 136.882Z" fill="#1AA34F"/>
<path d="M43.4353 134.886C43.4353 135.988 42.5439 136.882 41.4423 136.882C40.3423 136.882 39.4492 135.989 39.4492 134.886C39.4492 133.784 40.3407 132.89 41.4423 132.89C42.5439 132.891 43.4353 133.784 43.4353 134.886Z" fill="#1AA34F"/>
<path d="M63.1258 134.886C63.1258 135.988 62.2343 136.882 61.1327 136.882C60.0327 136.882 59.1396 135.989 59.1396 134.886C59.1396 133.784 60.0311 132.89 61.1327 132.89C62.2343 132.891 63.1258 133.784 63.1258 134.886Z" fill="#1AA34F"/>
<path d="M82.8162 134.886C82.8162 135.988 81.9247 136.882 80.8231 136.882C79.7232 136.882 78.8301 135.989 78.8301 134.886C78.8301 133.784 79.7215 132.89 80.8231 132.89C81.9247 132.891 82.8162 133.784 82.8162 134.886Z" fill="#1AA34F"/>
<path d="M100.514 136.882C101.614 136.882 102.507 135.989 102.507 134.886C102.507 133.783 101.614 132.89 100.514 132.89C99.4128 132.89 98.5205 133.783 98.5205 134.886C98.5205 135.989 99.4128 136.882 100.514 136.882Z" fill="#1AA34F"/>
<path d="M122.197 134.886C122.197 135.988 121.306 136.882 120.204 136.882C119.104 136.882 118.211 135.989 118.211 134.886C118.211 133.784 119.102 132.89 120.204 132.89C121.304 132.891 122.197 133.784 122.197 134.886Z" fill="#1AA34F"/>
<path d="M4.05447 156.887C4.05447 157.989 3.16301 158.883 2.06142 158.883C0.961459 158.883 0.0683594 157.99 0.0683594 156.887C0.0683594 155.785 0.959817 154.891 2.06142 154.891C3.16301 154.891 4.05447 155.784 4.05447 156.887Z" fill="#1AA34F"/>
<path d="M23.7449 156.887C23.7449 157.989 22.8534 158.883 21.7518 158.883C20.6519 158.883 19.7588 157.99 19.7588 156.887C19.7588 155.785 20.6502 154.891 21.7518 154.891C22.8534 154.891 23.7449 155.784 23.7449 156.887Z" fill="#1AA34F"/>
<path d="M43.4353 156.887C43.4353 157.989 42.5439 158.883 41.4423 158.883C40.3423 158.883 39.4492 157.99 39.4492 156.887C39.4492 155.785 40.3407 154.891 41.4423 154.891C42.5439 154.891 43.4353 155.784 43.4353 156.887Z" fill="#1AA34F"/>
<path d="M63.1258 156.887C63.1258 157.989 62.2343 158.883 61.1327 158.883C60.0327 158.883 59.1396 157.99 59.1396 156.887C59.1396 155.785 60.0311 154.891 61.1327 154.891C62.2343 154.891 63.1258 155.784 63.1258 156.887Z" fill="#1AA34F"/>
<path d="M82.8162 156.887C82.8162 157.989 81.9247 158.883 80.8231 158.883C79.7232 158.883 78.8301 157.99 78.8301 156.887C78.8301 155.785 79.7215 154.891 80.8231 154.891C81.9247 154.891 82.8162 155.784 82.8162 156.887Z" fill="#1AA34F"/>
<path d="M102.507 156.887C102.507 157.989 101.615 158.883 100.514 158.883C99.412 158.883 98.5205 157.99 98.5205 156.887C98.5205 155.785 99.412 154.891 100.514 154.891C101.615 154.891 102.507 155.784 102.507 156.887Z" fill="#1AA34F"/>
<path d="M122.197 156.887C122.197 157.989 121.306 158.883 120.204 158.883C119.104 158.883 118.211 157.99 118.211 156.887C118.211 155.785 119.102 154.891 120.204 154.891C121.304 154.891 122.197 155.784 122.197 156.887Z" fill="#1AA34F"/>
</svg>
