<svg width="101" height="101" viewBox="0 0 101 101" fill="none" xmlns="http://www.w3.org/2000/svg">
<path d="M56.9478 0.606645C29.5348 -2.72247 4.61478 16.804 1.28337 44.2178C-2.04429 71.62 17.4791 96.5462 44.8908 99.8774C72.2987 103.204 97.2231 83.6777 100.554 56.2661C103.882 28.8617 84.3575 3.9364 56.9478 0.606645ZM46.0372 80.2938L45.7642 80.2525C41.5671 79.5585 39.0155 76.0528 39.6957 71.9175C40.3642 67.853 43.8072 65.3017 47.8822 65.8521L48.1262 65.8894C52.4402 66.6025 54.9626 70.0724 54.2641 74.327C53.5908 78.4029 50.2091 80.8572 46.0372 80.2938ZM68.5131 47.5079C67.3319 48.7819 64.9167 50.2359 61.8821 52.0044L58.5765 53.6836C56.7423 54.7499 55.5766 55.8286 55.0393 56.9724C54.6161 57.8728 54.4371 58.102 54.1529 60.0116L54.083 60.4968L42.5378 58.9376L42.7031 57.9651C43.3865 53.9685 43.8046 51.6196 45.7325 49.8925C48.7575 47.1795 55.0181 44.2486 55.2838 44.1243C56.1929 43.6142 56.9843 43.0005 57.6046 42.3143C59.042 40.8072 59.7561 39.5645 59.9306 38.2718C60.1728 36.4783 59.8647 34.7476 59.0118 33.1287C58.1927 31.567 56.3685 30.5858 53.5894 30.2104C50.8329 29.8382 48.8276 30.458 47.4563 32.1001C46.0459 33.7885 45.1972 35.6471 44.9298 37.6269L44.8633 38.1192L32.9594 36.5116L33.0504 36.0007C34.342 28.7508 37.6535 23.852 42.8898 21.4398C46.1833 19.8983 50.087 19.4185 54.4862 20.0126C60.2448 20.7903 64.9171 22.8461 68.3716 26.1227C71.8718 29.4427 73.2732 33.8964 72.5354 39.3598C72.1227 42.4158 70.7698 45.1561 68.5131 47.5079Z" fill="#1AA34F"/>
</svg>
