<svg width="24" height="24" viewBox="0 0 24 24" fill="none" xmlns="http://www.w3.org/2000/svg">
<circle cx="12" cy="12" r="12" fill="#1AA34F"/>
<path d="M7.90767 16.1193C7.29403 16.1193 6.74858 16.0142 6.27131 15.804C5.79688 15.5937 5.42188 15.3011 5.14631 14.9261C4.87074 14.5511 4.72443 14.1179 4.70739 13.6264H6.30966C6.32386 13.8622 6.40199 14.0682 6.54403 14.2443C6.68608 14.4176 6.875 14.5526 7.1108 14.6491C7.34659 14.7457 7.6108 14.794 7.90341 14.794C8.21591 14.794 8.4929 14.7401 8.73438 14.6321C8.97585 14.5213 9.16477 14.3679 9.30114 14.1719C9.4375 13.9759 9.50426 13.75 9.50142 13.4943C9.50426 13.2301 9.43608 12.9972 9.29688 12.7955C9.15767 12.5937 8.95597 12.4361 8.69176 12.3224C8.4304 12.2088 8.11506 12.152 7.74574 12.152H6.97443V10.9332H7.74574C8.04972 10.9332 8.31534 10.8807 8.54261 10.7756C8.77273 10.6705 8.95313 10.5227 9.08381 10.3324C9.21449 10.1392 9.27841 9.91619 9.27557 9.66335C9.27841 9.41619 9.22301 9.2017 9.10938 9.01989C8.99858 8.83523 8.84091 8.69176 8.63636 8.58949C8.43466 8.48722 8.19744 8.43608 7.92472 8.43608C7.65767 8.43608 7.41051 8.48437 7.18324 8.58097C6.95597 8.67756 6.77273 8.81534 6.63352 8.99432C6.49432 9.17045 6.42045 9.38068 6.41193 9.625H4.89062C4.90199 9.13636 5.04261 8.70739 5.3125 8.33807C5.58523 7.96591 5.94886 7.67614 6.40341 7.46875C6.85795 7.25852 7.3679 7.15341 7.93324 7.15341C8.51563 7.15341 9.02131 7.26278 9.45028 7.48153C9.8821 7.69744 10.2159 7.98864 10.4517 8.35511C10.6875 8.72159 10.8054 9.12642 10.8054 9.5696C10.8082 10.0611 10.6634 10.473 10.3707 10.8054C10.081 11.1378 9.70028 11.3551 9.22869 11.4574V11.5256C9.84233 11.6108 10.3125 11.8381 10.6392 12.2074C10.9688 12.5739 11.1321 13.0298 11.1293 13.5753C11.1293 14.0639 10.9901 14.5014 10.7116 14.8878C10.4361 15.2713 10.0554 15.5724 9.5696 15.7912C9.08665 16.0099 8.53267 16.1193 7.90767 16.1193ZM15.8178 16.1662C15.1161 16.1662 14.5138 15.9886 14.011 15.6335C13.511 15.2756 13.1261 14.7599 12.8562 14.0866C12.5891 13.4105 12.4556 12.5966 12.4556 11.6449C12.4585 10.6932 12.5934 9.88352 12.8604 9.21591C13.1303 8.54545 13.5153 8.03409 14.0153 7.68182C14.5181 7.32955 15.119 7.15341 15.8178 7.15341C16.5167 7.15341 17.1175 7.32955 17.6204 7.68182C18.1232 8.03409 18.5082 8.54545 18.7752 9.21591C19.0451 9.88636 19.18 10.696 19.18 11.6449C19.18 12.5994 19.0451 13.4148 18.7752 14.0909C18.5082 14.7642 18.1232 15.2784 17.6204 15.6335C17.1204 15.9886 16.5195 16.1662 15.8178 16.1662ZM15.8178 14.8324C16.3633 14.8324 16.7937 14.5639 17.109 14.027C17.4272 13.4872 17.5863 12.6932 17.5863 11.6449C17.5863 10.9517 17.5138 10.3693 17.369 9.89773C17.2241 9.42614 17.0195 9.07102 16.7553 8.83239C16.4911 8.59091 16.1786 8.47017 15.8178 8.47017C15.2752 8.47017 14.8462 8.74006 14.5309 9.27983C14.2156 9.81676 14.0565 10.6051 14.0536 11.6449C14.0508 12.3409 14.1204 12.9261 14.2624 13.4006C14.4073 13.875 14.6119 14.233 14.8761 14.4744C15.1403 14.7131 15.4542 14.8324 15.8178 14.8324Z" fill="white"/>
</svg>
