<svg width="14" height="14" viewBox="0 0 14 14" fill="none" xmlns="http://www.w3.org/2000/svg">
<path fill-rule="evenodd" clip-rule="evenodd" d="M2.66667 0.883148C3.2413 0.883148 3.7924 1.11142 4.19873 1.51775C4.60506 1.92408 4.83333 2.47518 4.83333 3.04981C4.83333 3.62445 4.60506 4.17555 4.19873 4.58188C3.7924 4.98821 3.2413 5.21648 2.66667 5.21648C2.09203 5.21648 1.54093 4.98821 1.1346 4.58188C0.728273 4.17555 0.5 3.62445 0.5 3.04981C0.5 2.47518 0.728273 1.92408 1.1346 1.51775C1.54093 1.11142 2.09203 0.883148 2.66667 0.883148ZM11.3333 0.883148C11.908 0.883148 12.4591 1.11142 12.8654 1.51775C13.2717 1.92408 13.5 2.47518 13.5 3.04981C13.5 3.62445 13.2717 4.17555 12.8654 4.58188C12.4591 4.98821 11.908 5.21648 11.3333 5.21648C10.7587 5.21648 10.2076 4.98821 9.80127 4.58188C9.39494 4.17555 9.16667 3.62445 9.16667 3.04981C9.16667 2.47518 9.39494 1.92408 9.80127 1.51775C10.2076 1.11142 10.7587 0.883148 11.3333 0.883148ZM2.66667 9.54981C3.2413 9.54981 3.7924 9.77809 4.19873 10.1844C4.60506 10.5907 4.83333 11.1418 4.83333 11.7165C4.83333 12.2911 4.60506 12.8422 4.19873 13.2485C3.7924 13.6549 3.2413 13.8831 2.66667 13.8831C2.09203 13.8831 1.54093 13.6549 1.1346 13.2485C0.728273 12.8422 0.5 12.2911 0.5 11.7165C0.5 11.1418 0.728273 10.5907 1.1346 10.1844C1.54093 9.77809 2.09203 9.54981 2.66667 9.54981ZM13.5 11.7165C13.5 11.1418 13.2717 10.5907 12.8654 10.1844C12.4591 9.77809 11.908 9.54981 11.3333 9.54981C10.7587 9.54981 10.2076 9.77809 9.80127 10.1844C9.39494 10.5907 9.16667 11.1418 9.16667 11.7165C9.16667 12.2911 9.39494 12.8422 9.80127 13.2485C10.2076 13.6549 10.7587 13.8831 11.3333 13.8831C11.908 13.8831 12.4591 13.6549 12.8654 13.2485C13.2717 12.8422 13.5 12.2911 13.5 11.7165Z" fill="white"/>
</svg>
