<svg width="21" height="20" viewBox="0 0 21 20" fill="none" xmlns="http://www.w3.org/2000/svg">
<g clip-path="url(#clip0_177_6964)">
<path d="M10.0212 0.833336C8.20817 0.833336 6.43589 1.37095 4.92844 2.3782C3.42099 3.38544 2.24607 4.81708 1.55227 6.49207C0.858464 8.16706 0.676933 10.0102 1.03063 11.7883C1.38433 13.5665 2.25737 15.1998 3.53935 16.4818C4.82133 17.7638 6.45468 18.6368 8.23284 18.9905C10.011 19.3442 11.8541 19.1627 13.5291 18.4689C15.2041 17.7751 16.6357 16.6002 17.643 15.0927C18.6502 13.5853 19.1878 11.813 19.1878 10C19.185 7.56973 18.2183 5.23982 16.4998 3.52136C14.7813 1.80289 12.4514 0.836203 10.0212 0.833336ZM10.0212 17.5C8.5378 17.5 7.08776 17.0601 5.85439 16.236C4.62102 15.4119 3.65972 14.2406 3.09207 12.8701C2.52441 11.4997 2.37588 9.99168 2.66527 8.53683C2.95466 7.08197 3.66897 5.7456 4.71786 4.6967C5.76676 3.64781 7.10313 2.9335 8.55799 2.64411C10.0128 2.35472 11.5208 2.50325 12.8913 3.07091C14.2617 3.63856 15.4331 4.59986 16.2572 5.83323C17.0813 7.06659 17.5212 8.51664 17.5212 10C17.5187 11.9884 16.7278 13.8946 15.3218 15.3006C13.9158 16.7066 12.0095 17.4976 10.0212 17.5ZM10.8545 13.75V15.4167H9.18783V13.75H10.8545ZM13.3545 7.91667C13.3554 8.41644 13.2435 8.90997 13.027 9.36045C12.8106 9.81093 12.4952 10.2067 12.1045 10.5183C11.4733 11.0075 11.0465 11.7138 10.907 12.5H9.21366C9.28735 11.8575 9.48893 11.2363 9.80652 10.673C10.1241 10.1097 10.5513 9.61562 11.0628 9.22C11.2681 9.0557 11.4316 8.84515 11.54 8.60557C11.6483 8.36599 11.6985 8.10417 11.6863 7.8415C11.6741 7.57884 11.5999 7.32278 11.4698 7.09427C11.3398 6.86575 11.1575 6.67125 10.9378 6.52667C10.693 6.36667 10.4114 6.27196 10.1197 6.25154C9.82795 6.23112 9.53585 6.28567 9.27116 6.41C8.98883 6.54533 8.75189 6.75977 8.58915 7.02725C8.42641 7.29473 8.34489 7.60372 8.3545 7.91667C8.3545 8.13768 8.2667 8.34964 8.11042 8.50593C7.95414 8.66221 7.74218 8.75 7.52116 8.75C7.30015 8.75 7.08819 8.66221 6.93191 8.50593C6.77563 8.34964 6.68783 8.13768 6.68783 7.91667C6.67543 7.2762 6.85215 6.64629 7.19587 6.10573C7.5396 5.56517 8.03507 5.13795 8.62033 4.8775C9.13912 4.64565 9.70795 4.54817 10.2743 4.59404C10.8407 4.63992 11.3864 4.82768 11.8612 5.14C12.3199 5.44367 12.6963 5.85613 12.9569 6.34062C13.2174 6.82511 13.354 7.36656 13.3545 7.91667Z" fill="#1AA34F"/>
</g>
<defs>
<clipPath id="clip0_177_6964">
<rect width="20" height="20" fill="white" transform="translate(0.0209961)"/>
</clipPath>
</defs>
</svg>
