<svg width="19" height="18" viewBox="0 0 19 18" fill="none" xmlns="http://www.w3.org/2000/svg">
<path d="M14.3932 11.1775C14.2903 11.2778 14.2133 11.4017 14.1689 11.5385C14.1244 11.6752 14.1139 11.8207 14.1382 11.9625L14.9222 16.5315C14.9676 16.6849 14.963 16.8488 14.9091 16.9995C14.8551 17.1501 14.7547 17.2797 14.6222 17.3695C14.4579 17.4886 14.2602 17.553 14.0572 17.5535C13.8994 17.5541 13.7439 17.516 13.6042 17.4425L9.41723 15.1835C9.29 15.1166 9.14844 15.0817 9.00473 15.0817C8.86101 15.0817 8.71945 15.1166 8.59223 15.1835L4.57623 17.4425C4.41677 17.5264 4.23703 17.564 4.05731 17.5511C3.8776 17.5382 3.70507 17.4753 3.55923 17.3695C3.40705 17.2915 3.28117 17.1704 3.19725 17.0214C3.11332 16.8724 3.07506 16.702 3.08723 16.5315L4.04723 11.8675C4.07153 11.7257 4.06102 11.5802 4.0166 11.4435C3.97217 11.3067 3.89517 11.1828 3.79223 11.0825L0.292227 8.33246C0.163003 8.2068 0.0715603 8.04745 0.0282586 7.87247C-0.0150431 7.6975 -0.00847217 7.51389 0.0472268 7.34246C0.103011 7.17109 0.205623 7.01875 0.343462 6.90265C0.481301 6.78654 0.64887 6.71131 0.827227 6.68546L5.37423 5.88546C5.51655 5.86483 5.65172 5.8099 5.76809 5.72541C5.88446 5.64092 5.97854 5.5294 6.04223 5.40046L8.13523 0.982465C8.21537 0.820723 8.33931 0.684731 8.49294 0.58997C8.64657 0.49521 8.82372 0.445487 9.00423 0.446463C9.18441 0.446349 9.36102 0.496683 9.51407 0.591765C9.66712 0.686848 9.7905 0.822881 9.87023 0.984464L11.8812 5.40246C11.9449 5.5314 12.039 5.64292 12.1554 5.72741C12.2717 5.8119 12.4069 5.86683 12.5492 5.88746L17.1782 6.68746C17.3565 6.71326 17.524 6.78849 17.6616 6.90461C17.7993 7.02074 17.9017 7.17311 17.9572 7.34446C18.0127 7.51592 18.0191 7.69946 17.9759 7.87439C17.9326 8.04931 17.8413 8.20866 17.7122 8.33446L14.3932 11.1775Z" fill="#FEC210"/>
</svg>
