<svg width="11" height="6" viewBox="0 0 11 6" fill="none" xmlns="http://www.w3.org/2000/svg">
<path d="M5.33254 5.54983C5.17677 5.55013 5.02582 5.49588 4.90587 5.39649L0.905874 2.06316C0.76973 1.95 0.684113 1.78739 0.66786 1.61111C0.651607 1.43482 0.706048 1.2593 0.819207 1.12316C0.932366 0.987014 1.09497 0.901398 1.27126 0.885145C1.44754 0.868892 1.62306 0.923333 1.75921 1.03649L5.33254 4.02316L8.90587 1.14316C8.97407 1.08778 9.05253 1.04643 9.13676 1.02147C9.22098 0.996518 9.30931 0.988456 9.39666 0.997749C9.48401 1.00704 9.56867 1.03351 9.64576 1.07562C9.72285 1.11774 9.79086 1.17467 9.84587 1.24316C9.90693 1.31171 9.95317 1.39212 9.9817 1.47937C10.0102 1.56662 10.0204 1.65882 10.0117 1.7502C10.0029 1.84157 9.97536 1.93016 9.93078 2.01039C9.88619 2.09063 9.82551 2.1608 9.75254 2.21649L5.75254 5.43649C5.62915 5.52017 5.48127 5.56007 5.33254 5.54983V5.54983Z" fill="#120309"/>
</svg>
