<svg width="17" height="18" viewBox="0 0 17 18" fill="none" xmlns="http://www.w3.org/2000/svg">
<path d="M5.33301 13.8831C4.41634 13.8831 3.67467 14.6331 3.67467 15.5498C3.67467 16.4665 4.41634 17.2165 5.33301 17.2165C6.24967 17.2165 6.99967 16.4665 6.99967 15.5498C6.99967 14.6331 6.24967 13.8831 5.33301 13.8831ZM0.333008 0.549805V2.21647H1.99967L4.99967 8.54147L3.87467 10.5831C3.74134 10.8165 3.66634 11.0915 3.66634 11.3831C3.66634 12.2998 4.41634 13.0498 5.33301 13.0498H15.333V11.3831H5.68301C5.56634 11.3831 5.47467 11.2915 5.47467 11.1748L5.49967 11.0748L6.24967 9.71647H12.458C13.083 9.71647 13.633 9.37481 13.9163 8.85814L16.8997 3.4498C16.9663 3.33314 16.9997 3.19147 16.9997 3.0498C16.9997 2.59147 16.6247 2.21647 16.1663 2.21647H3.84134L3.05801 0.549805H0.333008ZM13.6663 13.8831C12.7497 13.8831 12.008 14.6331 12.008 15.5498C12.008 16.4665 12.7497 17.2165 13.6663 17.2165C14.583 17.2165 15.333 16.4665 15.333 15.5498C15.333 14.6331 14.583 13.8831 13.6663 13.8831Z" fill="#120309"/>
</svg>
