<svg width="25" height="24" viewBox="0 0 25 24" fill="none" xmlns="http://www.w3.org/2000/svg">
<circle cx="12.5" cy="12" r="12" fill="#1AA34F"/>
<g clip-path="url(#clip0_300_4693)">
<path d="M13.75 13.125C15.818 13.125 17.5 11.485 17.5 9.46875C17.5 7.45248 15.8177 5.8125 13.75 5.8125H10C9.53984 5.8125 9.16667 6.17635 9.16667 6.625V11.5H8.33333C7.87318 11.5 7.5 11.8631 7.5 12.3125C7.5 12.7619 7.87318 13.125 8.33333 13.125H9.16667V13.9375H8.33333C7.87318 13.9375 7.5 14.3013 7.5 14.75C7.5 15.1987 7.87318 15.5625 8.33333 15.5625H9.16667V16.375C9.16667 16.8237 9.53984 17.1875 10 17.1875C10.4602 17.1875 10.8333 16.8237 10.8333 16.375V15.5625H15C15.4602 15.5625 15.8333 15.1987 15.8333 14.75C15.8333 14.3013 15.4602 13.9375 15 13.9375H10.8333V13.125H13.75ZM10.8333 7.4375H13.75C14.8984 7.4375 15.8333 8.34902 15.8333 9.46875C15.8333 10.5885 14.8984 11.5 13.75 11.5H10.8333V7.4375Z" fill="white"/>
</g>
<defs>
<clipPath id="clip0_300_4693">
<rect width="10" height="13" fill="white" transform="translate(7.5 5)"/>
</clipPath>
</defs>
</svg>
