<svg width="25" height="24" viewBox="0 0 25 24" fill="none" xmlns="http://www.w3.org/2000/svg">
<circle cx="12.5" cy="12" r="12" fill="#1AA34F"/>
<path d="M17.1064 9.11248C16.1783 8.21873 14.9064 7.7031 13.6002 7.7031C12.2252 7.7031 10.8502 7.7031 9.44082 7.7031C9.3377 7.7031 9.2002 7.7031 9.09707 7.7031C9.54395 7.25623 9.95645 6.84373 10.4033 6.39685C10.7127 6.08748 10.7127 5.57185 10.4033 5.29685C10.0939 4.98748 9.57832 4.98748 9.30332 5.29685C8.44395 6.15623 7.58457 7.0156 6.7252 7.87498C6.41582 8.18435 6.41582 8.69998 6.7252 8.97498C7.61895 9.86873 8.47832 10.7281 9.40645 11.6562C9.71582 11.9656 10.2314 11.9656 10.5064 11.6562C10.8158 11.3469 10.8158 10.8312 10.5064 10.5562C10.0596 10.1094 9.64707 9.69685 9.2002 9.24998C10.5064 9.24998 11.7439 9.24998 13.0502 9.24998C13.2564 9.24998 13.4283 9.24998 13.6346 9.24998C15.7314 9.28435 17.4158 11.2094 16.9689 13.3062C16.7627 14.3375 16.1439 15.1625 15.2502 15.6781C14.4939 16.0562 13.7033 16.0562 12.8783 16.0562C11.8471 16.0562 11.8471 17.6375 12.8783 17.6375C13.7033 17.6375 14.4939 17.6375 15.2846 17.3625C16.3502 16.9844 17.2783 16.2281 17.8627 15.2656C19.0658 13.3062 18.7564 10.6937 17.1064 9.11248Z" fill="white"/>
</svg>
